<svg preserveAspectRatio="none" overflow="visible" style="display: block;" width="1624.74" height="501.059" viewBox="0 0 1624.74 501.059" fill="none" xmlns="http://www.w3.org/2000/svg">
<g id="Vector 2931">
<g filter="url(#filter0_ii_0_4)">
<path d="M1170.32 81.5C1352.32 81.5 1514.82 1 1621.82 1V222C1641.32 323.5 1511.82 419.5 1236.32 335C998.869 262.17 690.82 315.5 486.32 342.5C281.82 369.5 84.311 594.558 77.8199 454.5C74.7906 389.136 196.765 347.546 203.82 256C211.071 161.905 -14.2408 249.117 1.81964 152C38.7471 -71.2986 571.82 55 733.32 65C894.82 75 945.424 81.5 1170.32 81.5Z" fill="white"/>
</g>
<path d="M1170.32 81.5C1352.32 81.5 1514.82 1 1621.82 1V222C1641.32 323.5 1511.82 419.5 1236.32 335C998.869 262.17 690.82 315.5 486.32 342.5C281.82 369.5 84.311 594.558 77.8199 454.5C74.7906 389.136 196.765 347.546 203.82 256C211.071 161.905 -14.2408 249.117 1.81964 152C38.7471 -71.2986 571.82 55 733.32 65C894.82 75 945.424 81.5 1170.32 81.5Z" stroke="#0051FF" stroke-opacity="0.33" stroke-width="2"/>
</g>
<defs>
<filter id="filter0_ii_0_4" x="0" y="-32" width="1624.74" height="559.059" filterUnits="userSpaceOnUse" color-interpolation-filters="sRGB">
<feFlood flood-opacity="0" result="BackgroundImageFix"/>
<feBlend mode="normal" in="SourceGraphic" in2="BackgroundImageFix" result="shape"/>
<feColorMatrix in="SourceAlpha" type="matrix" values="0 0 0 0 0 0 0 0 0 0 0 0 0 0 0 0 0 0 127 0" result="hardAlpha"/>
<feOffset dy="26"/>
<feGaussianBlur stdDeviation="38.05"/>
<feComposite in2="hardAlpha" operator="arithmetic" k2="-1" k3="1"/>
<feColorMatrix type="matrix" values="0 0 0 0 0.4 0 0 0 0 0.694118 0 0 0 0 1 0 0 0 0.44 0"/>
<feBlend mode="normal" in2="shape" result="effect1_innerShadow_0_4"/>
<feColorMatrix in="SourceAlpha" type="matrix" values="0 0 0 0 0 0 0 0 0 0 0 0 0 0 0 0 0 0 127 0" result="hardAlpha"/>
<feOffset dy="-32"/>
<feGaussianBlur stdDeviation="19.9"/>
<feComposite in2="hardAlpha" operator="arithmetic" k2="-1" k3="1"/>
<feColorMatrix type="matrix" values="0 0 0 0 0.4 0 0 0 0 0.694118 0 0 0 0 1 0 0 0 0.22 0"/>
<feBlend mode="normal" in2="effect1_innerShadow_0_4" result="effect2_innerShadow_0_4"/>
</filter>
</defs>
</svg>
