<svg overflow="visible" style="display: block;" viewBox="0 0 1066.09 2830" fill="none" xmlns="http://www.w3.org/2000/svg" width="1066.09" height="2830">
<g id="Group">
<g id="Vector">
<path d="M680.79 2690.33C680.209 2689.16 680.043 2687.05 680.403 2685.49L681.048 2682.73L682.836 2686.41C683.813 2688.44 684.403 2690.62 684.136 2691.25C683.877 2691.89 683.242 2692.4 682.735 2692.4C682.228 2692.4 681.352 2691.47 680.79 2690.33Z" fill="var(--fill-0, #010001)"/>
<path d="M272.379 2768.78C268.979 2768.69 268.085 2768.43 269.384 2767.92C270.398 2767.52 272.37 2767.17 273.762 2767.13C275.153 2767.09 276.499 2767.48 276.757 2767.99C277.034 2768.55 275.338 2768.86 272.379 2768.78Z" fill="var(--fill-0, #010001)"/>
</g>
<path id="Vector_2" fill-rule="evenodd" clip-rule="evenodd" d="M588.959 0.00360083C592.231 -0.0609231 595.024 0.7318 600.019 3.18371C605.023 5.6264 609.023 6.7694 615.917 7.73726C620.986 8.44702 626.276 9.47019 627.668 10.0048C629.327 10.6408 630.995 12.5581 632.506 15.5815C633.787 18.1348 634.792 21.7297 634.773 23.647C634.746 25.5459 635.262 27.5646 635.925 28.1268C636.58 28.6983 640.229 29.869 644.027 30.7539C647.833 31.6296 651.556 32.496 652.321 32.6804C653.086 32.8647 655.261 34.4871 657.16 36.2845C659.399 38.3954 661.51 39.5476 663.15 39.5476C664.542 39.5384 668.689 39.5384 672.367 39.5476C676.284 39.5476 680.099 39.0129 681.583 38.2571C682.975 37.5473 687.021 36.0172 690.569 34.865C694.117 33.7035 699.094 31.1779 701.628 29.2422C705.914 25.9791 706.67 25.7302 712.457 25.721C717.591 25.721 719.278 26.1266 722.135 28.0531C724.033 29.3344 726.005 30.3852 726.512 30.3852C727.019 30.3852 728.678 29.7584 730.199 28.9841C731.72 28.2098 733.692 27.5738 734.577 27.5738C735.461 27.5646 737.019 26.523 738.033 25.2601C739.526 23.3981 740.346 23.0847 742.328 23.647C743.793 24.0618 745.378 25.5459 746.244 27.3157C747.055 28.9564 748.539 30.4866 749.553 30.7262C750.567 30.9659 751.931 30.6617 752.576 30.0533C753.221 29.445 753.949 27.8042 754.189 26.4123C754.428 25.0205 754.825 23.8775 755.083 23.8775C755.341 23.8775 757.516 24.7439 759.921 25.804C762.327 26.864 765.442 28.7352 766.834 29.9519C768.225 31.1779 769.884 32.1918 770.52 32.2011C771.156 32.2195 772.815 31.3899 774.207 30.3575C776.575 28.6062 776.741 28.0439 776.741 21.573C776.741 17.7661 777.174 13.5168 777.709 12.1249C778.501 10.0693 778.842 9.84812 779.543 10.9727C780.013 11.7377 780.4 15.0469 780.4 18.3468C780.4 22.2644 780.87 24.9375 781.764 26.0805C782.888 27.5 783.616 27.6567 785.699 26.9285C787.847 26.1911 788.409 25.2786 789.183 21.3518C789.69 18.7616 790.307 16.4388 790.566 16.1807C790.824 15.9226 791.994 16.4388 795.33 18.9644L793.413 22.799C791.681 26.2649 791.625 26.8271 792.87 28.4863C794.058 30.0718 794.667 30.2008 797.247 29.362C798.897 28.8366 801.902 26.7626 803.929 24.7532C805.957 22.7437 808.03 21.1122 808.537 21.1306C809.044 21.1398 810.703 19.8585 812.224 18.2915C813.744 16.7153 815.717 15.0469 816.601 14.5768C817.677 14.0176 819.29 14.1989 821.44 15.1206C823.21 15.8857 824.868 16.9181 825.127 17.4251C825.385 17.932 825.071 19.8032 824.435 21.5823C823.458 24.3384 822.869 24.8177 820.518 24.7716C818.998 24.7439 817.274 25.2509 816.694 25.9146C816.104 26.569 815.477 27.9333 815.311 28.9472C815.072 30.3299 815.569 30.8645 817.293 31.0949C819.062 31.3162 820.131 30.6248 821.901 28.0992C823.173 26.2925 824.933 24.8085 825.818 24.8085C826.703 24.7992 828.472 25.8316 829.735 27.1037C831.117 28.4863 832.02 30.4313 832.002 31.943C831.974 33.3348 832.638 35.0954 833.477 35.8605C834.601 36.8837 835.919 37.068 838.582 36.5518C840.61 36.1647 843.882 36.2845 846.094 36.8376C849.043 37.5842 850.693 37.5381 852.775 36.6532C854.296 36.008 856.029 34.8465 856.619 34.063C857.208 33.2795 858.038 32.9661 858.462 33.3717C858.886 33.7773 858.655 35.4365 857.955 37.0588C857.245 38.6811 856.702 41.0408 856.72 42.3129C856.748 43.5941 857.826 45.5391 859.153 46.6913C860.462 47.8343 862.462 48.7561 863.605 48.7376C864.747 48.7192 866.922 47.9449 868.443 47.0047C869.964 46.0645 871.521 44.6265 871.899 43.8062C872.461 42.5894 872.848 42.5249 874.019 43.4651C874.802 44.1011 876.028 46.4793 876.738 48.7653C877.447 51.0421 878.572 53.4018 879.226 53.9917C879.89 54.5817 881.65 55.2085 883.143 55.3744C885.475 55.6325 885.991 55.2822 886.728 52.9133C887.198 51.3923 887.77 49.5304 887.991 48.7653C888.313 47.6407 888.636 47.7329 889.696 49.2262C890.424 50.2401 891.235 53.3465 891.512 56.1395C891.797 58.9232 893.041 63.3846 894.286 66.0485C896.129 69.9937 896.977 70.8878 898.857 70.8878C900.129 70.8878 902.304 71.4593 903.695 72.1598C905.087 72.8604 906.746 74.5196 907.382 75.8469C908.276 77.7273 908.995 78.1421 910.608 77.7181C912.294 77.2757 913.695 78.2712 918.073 83.0183C921.04 86.2353 924.884 91.0377 926.598 93.7016C928.321 96.3655 930.801 99.2691 932.109 100.154C933.418 101.039 935.934 103.012 937.694 104.532C939.455 106.053 941.279 108.542 941.75 110.063C942.21 111.584 942.809 115.631 943.077 119.05C943.344 122.47 943.971 126.305 944.478 127.577C945.113 129.181 945.077 130.517 944.348 131.955C943.657 133.31 943.519 136.112 943.934 140.021C944.293 143.321 944.874 148.501 945.242 151.543C945.602 154.585 946.182 157.488 946.514 157.995C946.855 158.502 946.56 160.576 945.869 162.604C944.92 165.369 944.837 167.323 945.519 170.439C946.026 172.716 947.058 175.205 947.823 175.97C948.643 176.79 948.994 178.191 948.68 179.426C948.395 180.569 946.92 182.33 945.399 183.344C943.86 184.367 942.634 186.008 942.634 187.031C942.634 188.045 943.104 189.805 943.685 190.948C944.266 192.091 945.242 194.884 945.86 197.17C946.477 199.447 947.252 202.047 947.574 202.931C947.989 204.065 947.62 204.683 946.321 205.005C945.307 205.254 943.436 206.609 942.173 208.001C940.69 209.633 939.63 212.177 939.215 215.145C938.865 217.68 937.694 220.998 936.616 222.519C935.538 224.04 934.321 226.317 933.906 227.589C933.501 228.852 932.183 231.036 930.985 232.428C929.298 234.401 928.81 236.041 928.819 239.802C928.819 242.466 928.026 248.992 927.059 254.32C926.091 259.648 924.017 267.105 922.469 270.912C920.856 274.848 918.736 278.415 917.538 279.19C916.386 279.936 914.101 282.01 912.451 283.798C910.801 285.587 908.313 288.278 906.921 289.799C905.529 291.311 901.742 295.459 898.507 299.017C895.272 302.566 890.23 309.212 887.3 313.774C883.622 319.489 881.051 322.504 879.014 323.453C877.392 324.218 875.134 326.08 874.001 327.601C872.867 329.122 870.849 332.44 869.503 334.975C868.157 337.51 867.061 339.999 867.07 340.506C867.079 341.013 865.835 343.4 864.305 345.806C861.559 350.138 861.494 350.175 857.614 349.604C853.909 349.051 853.587 349.189 851.679 352.139C850.564 353.853 848.388 357.015 846.84 359.172C845.292 361.329 844.02 363.605 844.02 364.241C844.029 364.877 843.237 366.85 842.278 368.62C841.32 370.39 840.232 373.505 839.854 375.533C839.476 377.561 838.628 380.253 837.983 381.525C837.329 382.787 836.37 387.147 835.854 391.203C835.329 395.259 834.26 400.135 833.477 402.034C832.684 403.933 832.039 406.523 832.039 407.795C832.039 409.058 831.246 412.487 830.269 415.4C829.302 418.312 828.214 423.189 827.855 426.23C827.504 429.272 826.684 433.218 826.039 434.987C825.385 436.757 824.398 442.564 823.836 447.892C823.274 453.22 822.352 460.889 821.79 464.945C820.942 471.056 821.007 473.103 822.177 476.928C822.951 479.463 823.809 483.196 824.085 485.224C824.362 487.252 825.68 491.4 827.016 494.442C828.343 497.483 830.122 500.746 830.97 501.696C831.808 502.636 834.573 504.341 837.108 505.475C839.642 506.609 843.172 507.853 844.942 508.24C846.711 508.637 851.07 510.37 854.619 512.103C859.061 514.278 863.052 515.458 873.825 516.564L876.434 522.095C877.871 525.137 879.042 528.354 879.042 529.238C879.042 530.123 881.429 533.801 884.341 537.415C887.254 541.028 892.958 546.549 897.014 549.693C901.069 552.836 906.663 556.689 909.456 558.265C912.248 559.841 917.64 562.736 921.437 564.699C925.243 566.653 930.22 569.455 932.496 570.902C934.773 572.359 937.888 574.11 939.409 574.802C940.929 575.484 942.791 576.433 943.556 576.894C944.321 577.364 947.012 578.655 949.546 579.77C952.081 580.876 958.486 583.909 963.786 586.508C969.085 589.107 974.91 592.684 976.735 594.454C978.559 596.223 981.914 600.371 984.19 603.671C986.467 606.971 989.49 612.152 990.909 615.194C992.328 618.235 994.264 622.383 995.222 624.411C996.172 626.439 997.379 629.131 997.895 630.403C998.42 631.666 999.241 633.325 999.72 634.09C1000.19 634.855 1001.65 637.86 1002.95 640.773C1004.25 643.686 1005.3 646.488 1005.3 646.995C1005.3 647.502 1006.13 649.576 1007.15 651.604C1008.16 653.631 1008.99 656.222 1008.99 657.365C1008.98 658.508 1009.81 660.996 1010.83 662.895C1011.85 664.794 1012.69 666.868 1012.69 667.504C1012.7 668.14 1013.51 670.315 1014.48 672.343C1015.46 674.371 1017.33 679.349 1018.64 683.405C1019.94 687.46 1020.99 691.396 1020.97 692.161C1020.95 692.927 1021.78 696.236 1022.82 699.536C1023.85 702.836 1024.69 706.772 1024.67 708.292C1024.66 709.813 1025.29 713.335 1026.06 716.128C1026.83 718.92 1027.88 724.304 1028.39 728.111C1028.9 731.908 1029.92 737.927 1030.68 741.476C1031.42 745.025 1032.46 753.533 1032.95 760.373C1033.46 767.212 1033.86 779.453 1033.84 787.565C1033.81 795.676 1033.21 815.172 1032.49 830.888C1031.78 846.604 1030.77 861.122 1030.25 863.15C1029.74 865.178 1029.3 871.501 1029.29 877.207C1029.28 884.323 1029.67 888.37 1030.56 890.112C1031.27 891.504 1033.73 896.592 1036.02 901.403C1038.32 906.215 1040.64 911.718 1041.18 913.617C1041.73 915.516 1042.58 917.276 1043.09 917.534C1043.6 917.792 1044.02 918.724 1044.02 919.608C1044.03 920.493 1045.98 925.167 1048.35 929.978C1050.72 934.79 1053.42 939.768 1054.36 941.04C1055.34 942.367 1056.06 944.902 1056.06 947.031C1056.07 950.368 1055.5 951.262 1050.04 956.479C1045.49 960.83 1044.01 962.858 1044 964.775C1044 966.167 1044.23 969.181 1044.53 971.458C1044.95 974.822 1045.96 976.574 1049.84 980.713C1052.46 983.524 1055.69 987.257 1057.02 989.009C1058.34 990.76 1060.37 994.069 1061.54 996.346C1062.71 998.623 1064.21 1002.98 1064.87 1006.02C1065.52 1009.07 1066.08 1013.43 1066.09 1015.7C1066.1 1017.98 1065.47 1021.92 1064.69 1024.46C1063.89 1026.99 1062.1 1030.53 1060.68 1032.29C1059.26 1034.06 1056.27 1036.42 1054.05 1037.53C1051.83 1038.64 1046.69 1040.19 1042.63 1040.97C1038.58 1041.75 1033.29 1042.61 1030.88 1042.88C1028.1 1043.18 1025.5 1044.19 1023.74 1045.66C1022.22 1046.92 1020.97 1048.58 1020.97 1049.35C1020.97 1050.11 1022.55 1052.7 1024.48 1055.11C1026.41 1057.51 1029.11 1061.15 1030.47 1063.17C1032.36 1065.97 1032.96 1067.98 1032.95 1071.47C1032.94 1074.01 1033.95 1081.89 1035.18 1088.98C1036.41 1096.08 1038.01 1103.35 1038.76 1105.11C1039.5 1106.88 1040.36 1111.24 1040.7 1114.79C1041.03 1118.34 1041.91 1123.32 1042.66 1125.85C1043.41 1128.39 1044.26 1133.57 1044.55 1137.38C1044.84 1141.17 1045.66 1148.44 1046.38 1153.51C1047.1 1158.58 1047.68 1167.08 1047.67 1172.4C1047.67 1177.73 1047.09 1184.36 1046.39 1187.15C1045.69 1189.95 1044.83 1195.74 1044.5 1200.06C1044.17 1204.37 1043.31 1210.17 1042.6 1212.96C1041.89 1215.75 1040.84 1224.05 1040.28 1231.4C1039.71 1238.74 1039.17 1250.99 1039.06 1258.59C1038.88 1270.76 1038.56 1273.41 1036.31 1280.71C1033.92 1288.44 1033.82 1289.45 1034.76 1295.46C1035.48 1300.04 1035.5 1303.78 1034.81 1308.37C1034.28 1311.91 1033.43 1318.24 1032.94 1322.42C1032.44 1326.61 1031.62 1330.86 1031.11 1331.87C1030.6 1332.88 1029.75 1336.1 1029.19 1339.01C1028.65 1341.93 1027.67 1345.14 1027.02 1346.16C1026.36 1347.17 1025.53 1349.45 1025.14 1351.23C1024.76 1353.01 1023.77 1355.59 1022.94 1356.98C1022.12 1358.37 1019.77 1360.31 1017.75 1361.28C1015.72 1362.26 1012.6 1363.28 1010.83 1363.53C1009.07 1363.8 1004.29 1363.22 1000.24 1362.24C996.181 1361.27 991.619 1360.45 990.098 1360.45C988.577 1360.44 984.43 1359.41 980.882 1358.19C977.334 1356.95 971.325 1354.66 967.518 1353.09C963.721 1351.52 960.403 1350.2 960.145 1350.16C959.887 1350.12 958.542 1350.14 957.15 1350.2C955.408 1350.27 953.307 1351.68 950.45 1354.68C948.155 1357.09 946.302 1359.48 946.33 1359.98C946.358 1360.49 945.602 1361.94 944.634 1363.21C943.676 1364.47 942.579 1366.55 942.201 1367.82C941.823 1369.08 939.998 1371.72 938.155 1373.66C936.312 1375.61 932.727 1378.28 930.192 1379.61C925.971 1381.81 924.451 1382.05 912.221 1382.39C901.29 1382.7 896.921 1382.41 888.258 1380.79C880.738 1379.38 875.66 1377.81 870.775 1375.39C865.365 1372.7 861.503 1369.66 852.803 1361.24C846.379 1355.03 840.794 1350.37 839.522 1350.18C838.02 1349.95 836.776 1350.56 835.55 1352.15C834.573 1353.41 833.44 1356.11 833.034 1358.14C832.619 1360.17 832.592 1363.49 832.97 1365.52C833.347 1367.54 834.103 1371.07 834.656 1373.35C835.209 1375.63 836.481 1381.23 837.486 1385.79C838.49 1390.36 839.559 1396.99 839.873 1400.54C840.186 1404.09 841.015 1408.87 841.716 1411.14C842.416 1413.42 843.421 1418.3 843.965 1421.97C844.499 1425.65 845.319 1429.38 845.78 1430.27C846.241 1431.15 847.043 1434.99 847.577 1438.8C848.103 1442.59 849.181 1448.2 849.974 1451.24C850.757 1454.28 851.421 1458.43 851.439 1460.46C851.457 1462.49 852.103 1465.8 852.868 1467.83C853.623 1469.86 855.107 1475.25 856.139 1479.81C857.181 1484.38 858.582 1491.01 859.264 1494.56C859.937 1498.11 861.144 1503.5 861.936 1506.55C862.729 1509.59 863.393 1513.95 863.393 1516.22C863.402 1518.5 864.047 1523.28 864.83 1526.82C865.614 1530.37 866.803 1537.63 867.466 1542.96C868.13 1548.28 869.098 1553.67 869.604 1554.94C870.121 1556.2 870.83 1560.56 871.19 1564.62C871.54 1568.67 872.388 1574.48 873.07 1577.52C873.752 1580.56 874.756 1588.03 875.309 1594.11C875.853 1600.2 876.701 1606.83 877.189 1608.86C877.687 1610.89 878.517 1618.36 879.051 1625.45C879.576 1632.55 880.59 1641.47 881.3 1645.27C882.009 1649.07 882.839 1657.78 883.134 1664.63C883.438 1671.48 884.304 1679.66 885.051 1682.83C885.89 1686.39 886.793 1698.22 887.41 1713.71C887.954 1727.53 888.645 1739.25 888.931 1739.75C889.226 1740.26 889.613 1750 889.788 1761.42C889.972 1772.82 890.535 1791.48 891.042 1802.9C891.548 1814.3 892.359 1825.29 892.839 1827.32C893.309 1829.35 894.147 1837.65 894.7 1845.76C895.244 1853.87 896.101 1862.78 896.599 1865.58C897.106 1868.37 897.935 1879.36 898.461 1890C898.986 1900.65 900.009 1912.47 900.737 1916.27C901.465 1920.07 902.488 1929.41 903.004 1937.01C903.52 1944.62 904.341 1952.5 904.82 1954.53C905.299 1956.55 906.147 1965.06 906.691 1973.42C907.234 1981.78 908.092 1991.54 908.58 1995.08C909.078 1998.63 909.889 2014.18 910.386 2029.65C910.884 2045.12 911.907 2063.78 912.654 2071.13C913.409 2078.48 914.469 2094.04 915.013 2105.7C915.548 2117.36 916.405 2128.77 916.912 2131.05C917.419 2133.32 918.285 2156.97 918.847 2183.59C919.603 2219.33 919.594 2238.6 918.829 2257.33C918.257 2271.27 917.179 2286.41 916.442 2290.97C915.695 2295.54 914.69 2305.49 914.211 2313.1C913.732 2320.7 912.644 2330.44 911.797 2334.76C910.958 2339.07 909.465 2345.7 908.488 2349.51C907.52 2353.3 906.709 2357.76 906.709 2359.41C906.7 2361.06 905.898 2364.8 904.93 2367.71C903.963 2370.62 902.903 2376.53 902.571 2380.85C902.248 2385.16 901.401 2391.17 900.709 2394.21C900.009 2397.25 899.17 2403.26 898.838 2407.58C898.516 2411.89 897.677 2417.49 896.986 2420.02C896.295 2422.56 895.456 2427.53 895.134 2431.08C894.811 2434.63 893.991 2440.64 893.309 2444.45C892.636 2448.25 891.613 2457.38 891.042 2464.73C890.479 2472.07 889.604 2479.54 889.115 2481.32C888.618 2483.1 887.77 2491.8 887.226 2500.68C886.35 2515.1 886.406 2517.24 887.797 2520.95C888.654 2523.23 890.516 2528.62 891.935 2532.94C893.364 2537.25 895.392 2545.55 896.461 2551.37C897.603 2557.6 898.405 2565.77 898.396 2571.19C898.396 2579.44 898.12 2580.99 895.751 2585.94C894.055 2589.48 890.645 2593.96 886.277 2598.38C882.526 2602.18 875.816 2607.79 871.365 2610.83C866.913 2613.87 862.158 2616.98 860.794 2617.73C859.42 2618.49 856.232 2620.4 853.697 2621.98C851.163 2623.56 847.633 2625.52 845.863 2626.34C844.094 2627.15 841.679 2628.77 840.499 2629.93C839.126 2631.27 838.536 2632.69 838.85 2633.87C839.117 2634.89 841.753 2637.99 844.711 2640.79C847.66 2643.58 852.969 2648.31 856.499 2651.3C860.029 2654.3 864.867 2659.28 867.245 2662.36C869.632 2665.45 872.36 2669.01 873.328 2670.28C874.286 2671.54 875.936 2674.25 877.005 2676.27C878.065 2678.3 879.733 2681.62 880.701 2683.65C881.678 2685.68 882.784 2688.78 883.171 2690.56C883.558 2692.34 884.443 2694.93 885.143 2696.32C885.843 2697.71 887.272 2704.56 888.332 2711.53C889.659 2720.32 890.046 2725.9 889.604 2729.74C889.254 2732.78 888.406 2736.71 887.733 2738.49C887.051 2740.27 884.931 2742.96 883.005 2744.48C881.088 2746.01 877.853 2748.01 875.825 2748.93C873.789 2749.85 869.024 2751.59 865.217 2752.79C861.42 2753.99 853.54 2755.81 847.706 2756.85C841.873 2757.87 833.163 2758.96 828.352 2759.25C823.541 2759.54 816.067 2760.45 811.763 2761.26C805.874 2762.39 797.763 2762.77 779.045 2762.84C754.926 2762.92 753.995 2762.86 748.631 2760.74C745.59 2759.53 739.646 2756.84 735.424 2754.74C730.604 2752.36 726.051 2749.22 723.185 2746.33C720.669 2743.79 718.623 2741.41 718.642 2741.03C718.66 2740.65 716.9 2738.16 714.734 2735.5C712.568 2732.83 710.255 2729.62 709.6 2728.35C708.955 2727.08 707.711 2724.8 706.845 2723.28C705.978 2721.76 702.974 2717.4 700.181 2713.6C697.389 2709.8 693.601 2704.41 691.776 2701.62C689.942 2698.83 687.38 2695.51 686.08 2694.25C684.772 2692.98 683.905 2691.63 684.145 2691.25C684.385 2690.87 683.85 2688.91 682.965 2686.88C681.915 2684.5 681.113 2683.61 680.68 2684.35C680.302 2684.97 679.989 2686.42 679.989 2687.56C679.979 2688.71 680.8 2690.47 681.813 2691.48C683.472 2693.14 683.537 2693.67 682.505 2696.68C681.869 2698.53 680.21 2701.01 678.818 2702.21C677.426 2703.41 675.555 2704.38 674.671 2704.36C673.786 2704.34 670.367 2703.97 667.067 2703.54C662.57 2702.95 659.353 2701.75 654.174 2698.73C649.971 2696.28 643.999 2691.47 638.875 2686.41C633.068 2680.68 629.751 2676.55 628.128 2673.05C626.838 2670.25 623.557 2664.94 620.848 2661.24C618.138 2657.53 612.387 2650.07 608.083 2644.65C603.779 2639.23 599.576 2633.75 598.765 2632.49C597.945 2631.22 596.13 2627.28 594.738 2623.73C592.554 2618.16 592.259 2616.33 592.618 2610.37C592.849 2606.56 593.798 2601.38 594.719 2598.84C595.641 2596.31 597.318 2592.16 598.452 2589.63C599.586 2587.09 600.784 2584.39 601.115 2583.64C601.447 2582.88 602.719 2580.59 603.945 2578.57C605.161 2576.54 607.466 2572.18 611.963 2562.9L611.594 2531.09C611.336 2508.25 610.903 2498.51 610.065 2496.53C609.429 2495.01 608.489 2490.65 607.991 2486.85C607.493 2483.04 606.516 2478.49 605.816 2476.71C605.125 2474.93 604.277 2471.21 603.936 2468.41C603.595 2465.62 602.516 2460.96 601.549 2458.04C600.581 2455.13 599.788 2451.7 599.788 2450.44C599.788 2449.17 598.959 2446.06 597.945 2443.53C596.931 2440.99 596.102 2437.57 596.111 2435.92C596.111 2434.27 595.328 2429.81 594.36 2426.01C593.392 2422.21 592.332 2416.61 592.001 2413.57C591.66 2410.53 590.802 2406.17 590.084 2403.89C589.356 2401.61 588.379 2396.22 587.89 2391.91C587.411 2387.59 586.609 2383.03 586.111 2381.77C585.623 2380.5 584.711 2374.9 584.102 2369.32C583.485 2363.75 582.545 2358.14 582.001 2356.88C581.457 2355.6 580.858 2345.81 580.646 2334.76C580.443 2323.86 580.803 2303.94 581.457 2290.51C582.102 2277.08 582.655 2259.86 582.683 2252.26C582.711 2244.65 582.148 2232.01 581.43 2224.14C580.711 2216.28 580.121 2199.49 580.112 2186.81C580.093 2165.37 580.231 2163.38 582.112 2158.24C583.227 2155.2 584.121 2151.88 584.121 2150.86C584.111 2149.85 584.941 2147.36 585.964 2145.33C586.987 2143.31 587.835 2141.23 587.844 2140.72C587.853 2140.22 588.886 2137.73 590.13 2135.19C591.374 2132.66 592.406 2130.07 592.406 2129.43C592.415 2128.8 593.245 2126.72 594.259 2124.82C595.282 2122.92 596.111 2120.64 596.102 2119.75C596.102 2118.87 596.959 2115.97 598.019 2113.3C599.549 2109.42 599.954 2106.17 600.083 2096.94C600.175 2090.6 599.724 2058.66 599.097 2025.96C598.47 1993.27 597.558 1951.99 597.07 1934.25C596.59 1916.5 595.908 1899.28 595.577 1895.99C595.236 1892.7 594.443 1888.56 593.816 1886.78C593.19 1885 592.397 1881.27 592.065 1878.48C591.733 1875.69 590.646 1871.02 589.632 1868.11C588.627 1865.2 587.789 1861.88 587.78 1860.74C587.761 1859.59 586.941 1857 585.964 1854.98C584.987 1852.95 584.167 1850.36 584.148 1849.21C584.139 1848.07 583.328 1844.75 582.351 1841.84C581.383 1838.93 580.305 1834.47 579.955 1831.93C579.614 1829.4 578.803 1826.28 578.158 1825.02C577.513 1823.75 576.508 1820.01 575.918 1816.72C575.328 1813.43 574.471 1810.32 574.001 1809.81C573.54 1809.3 572.72 1805.88 572.186 1802.2C571.651 1798.53 570.803 1794.69 570.296 1793.68C569.789 1792.66 568.969 1788.41 568.481 1784.23C567.992 1780.04 566.997 1774.97 566.287 1772.94C565.559 1770.89 564.702 1763.31 564.343 1755.89C563.983 1748.54 563.135 1740.86 562.444 1738.83C561.753 1736.8 560.324 1729.55 559.274 1722.7C558.214 1715.85 556.711 1706.11 555.928 1701.04C555.154 1695.97 554.122 1687.16 553.652 1681.45C553.172 1675.75 552.371 1670.25 551.864 1669.24C551.274 1668.07 550.02 1667.4 548.408 1667.4C546.795 1667.39 545.366 1668.15 544.491 1669.47C543.458 1671.02 542.952 1675.75 542.491 1688.13C542.15 1697.26 541.468 1712.61 540.979 1722.24C540.491 1731.87 539.606 1741 539.016 1742.52C538.417 1744.04 537.532 1749.64 537.044 1754.96C536.555 1760.29 535.56 1766.51 534.832 1768.79C534.113 1771.07 533.238 1776.04 532.897 1779.85C532.556 1783.65 531.717 1788.42 531.035 1790.45C530.362 1792.48 529.376 1798.19 528.851 1803.13C528.325 1808.07 527.487 1813.15 526.98 1814.42C526.473 1815.68 525.588 1819.73 525.017 1823.4C524.436 1827.08 523.45 1831.33 522.814 1832.85C522.187 1834.37 521.358 1838.94 520.989 1842.99C520.611 1847.05 519.726 1852.03 519.017 1854.05C518.316 1856.08 517.339 1861.47 516.86 1866.04C516.381 1870.6 515.34 1876.41 514.556 1878.94C513.773 1881.48 513.137 1885.11 513.146 1887.01C513.146 1888.91 512.326 1892.85 511.303 1895.76C510.289 1898.68 509.46 1902.1 509.469 1903.37C509.469 1904.63 508.842 1907.95 508.059 1910.74C507.285 1913.54 506.059 1919.33 505.349 1923.65C504.63 1927.96 503.395 1933.76 502.603 1936.55C501.81 1939.35 501.174 1943.07 501.183 1944.85C501.193 1946.63 500.557 1950.15 499.764 1952.68C498.981 1955.22 497.921 1961.44 497.414 1966.51C496.898 1971.58 495.912 1977.8 495.211 1980.34C494.511 1982.87 493.654 1987.85 493.303 1991.4C492.944 1994.95 492.142 1999.3 491.497 2001.08C490.861 2002.86 490.05 2008.04 489.7 2012.6C489.35 2017.16 488.483 2022.97 487.783 2025.5C487.082 2028.04 486.05 2036.54 485.497 2044.4C484.935 2052.26 484.069 2060.76 483.571 2063.3C483.083 2065.83 482.281 2077.23 481.792 2088.64C481.304 2100.05 480.308 2114.56 479.571 2120.91C478.834 2127.24 477.986 2137.41 477.691 2143.49C477.387 2149.57 476.548 2157.66 475.811 2161.46C475.083 2165.26 474.078 2174.8 473.581 2182.66C473.083 2190.53 472.235 2198.4 471.691 2200.18C471.147 2201.96 470.346 2210.04 469.894 2218.15C469.452 2226.26 468.466 2235.39 467.701 2238.43C466.936 2241.47 466.032 2249.14 465.701 2255.48C465.369 2261.82 464.539 2269.5 463.867 2272.54C463.185 2275.58 462.364 2280.56 462.033 2283.6C461.71 2286.64 460.632 2291.52 459.645 2294.43C458.659 2297.34 457.867 2300.87 457.876 2302.26C457.876 2303.66 457.047 2307.29 456.014 2310.33C454.982 2313.37 454.153 2317 454.153 2318.4C454.162 2319.79 452.899 2324.77 451.351 2329.46C449.803 2334.15 448.134 2338.4 447.646 2338.91C447.167 2339.41 446.77 2340.45 446.77 2341.21C446.78 2341.97 445.757 2344.67 444.512 2347.2C443.268 2349.74 442.236 2352.33 442.218 2352.96C442.199 2353.6 441.36 2355.67 440.347 2357.57C439.324 2359.47 438.494 2361.54 438.503 2362.18C438.503 2362.82 437.416 2365.72 436.098 2368.63C434.771 2371.55 432.918 2375.59 431.978 2377.62C431.038 2379.65 430.052 2383.58 429.776 2386.38C429.508 2389.17 428.826 2404.92 428.273 2421.4C427.711 2437.88 426.928 2474.38 426.531 2502.52C426.052 2535.4 425.425 2555 424.753 2557.36C424.181 2559.39 423.315 2568.93 422.817 2578.57C422.32 2588.2 421.315 2599.4 420.578 2603.45C419.84 2607.51 418.974 2614.98 418.642 2620.05C418.31 2625.11 417.435 2632.37 416.688 2636.18C415.951 2639.97 415.039 2651.18 414.67 2661.06C414.099 2676.44 413.748 2679.44 412.246 2681.8C411.278 2683.32 409.251 2686.23 405.021 2691.94L406.209 2700.24C406.864 2704.8 407.242 2712.83 406.707 2727.64L402.928 2731C400.855 2732.83 398.154 2734.82 396.938 2735.41C395.721 2736 392.855 2737.29 390.579 2738.26C388.302 2739.24 384.155 2740.92 381.362 2742C378.367 2743.17 371.777 2744.44 365.234 2745.12C355.769 2746.11 353.76 2746.6 351.271 2748.6C349.668 2749.89 345.317 2753.25 341.594 2756.07C337.871 2758.9 331.917 2762.57 328.369 2764.23C324.82 2765.89 318.848 2768.76 315.088 2770.62C308.415 2773.91 308.028 2773.98 298.038 2773.88C289.421 2773.8 286.803 2773.4 281.366 2771.36C277.817 2770.04 275.43 2768.94 276.066 2768.93C276.702 2768.92 277.016 2768.5 276.758 2767.99C276.499 2767.48 275.154 2767.1 273.762 2767.13C272.371 2767.17 270.398 2767.59 269.384 2768.07C267.689 2768.88 267.707 2768.91 269.615 2768.47C270.758 2768.2 271.532 2768.3 271.329 2768.68C271.136 2769.06 269.375 2769.64 267.412 2769.97C265.458 2770.29 260.537 2772.5 256.482 2774.86C252.427 2777.22 248.491 2779.5 247.726 2779.95C246.961 2780.39 244.583 2781.61 242.427 2782.66C240.27 2783.72 237.994 2784.59 237.358 2784.61C236.722 2784.63 234.132 2785.66 231.598 2786.9C229.063 2788.15 226.372 2789.19 225.607 2789.21C224.842 2789.23 220.492 2792.29 215.93 2796.01C211.368 2799.74 205.147 2804.35 202.106 2806.27C199.064 2808.2 195.332 2810.19 193.811 2810.7C192.29 2811.2 190.217 2812.13 189.203 2812.76C188.189 2813.39 183.83 2815.04 179.526 2816.42C175.222 2817.8 170.346 2819.5 168.697 2820.19C167.047 2820.88 164.973 2821.45 164.088 2821.44C163.204 2821.44 159.37 2822.23 155.563 2823.19C151.766 2824.15 145.333 2825.2 141.278 2825.53C137.223 2825.85 130.799 2826.71 126.993 2827.44C123.196 2828.17 110.745 2829.16 99.344 2829.62C87.4826 2830.11 71.8979 2830.13 62.9396 2829.68C52.6266 2829.17 44.4426 2828.23 38.9773 2826.94C34.4152 2825.86 29.4384 2824.59 27.9178 2824.12C26.3971 2823.65 22.047 2821.51 18.2407 2819.36C14.4435 2817.21 9.44832 2813.59 7.15346 2811.31C4.32406 2808.51 2.41629 2805.52 1.26426 2802.09C-0.274864 2797.49 -0.330161 2796.1 0.674414 2786.89C1.28269 2781.31 2.77573 2773.84 3.98306 2770.29C5.19961 2766.75 7.54976 2761.16 9.21791 2757.89C11.6694 2753.08 13.6878 2750.77 19.7245 2745.9C23.8349 2742.59 28.1942 2739.39 29.4016 2738.8C30.6181 2738.21 34.406 2736.44 37.8253 2734.88C41.2445 2733.32 46.848 2730.33 50.2673 2728.23C53.6865 2726.13 58.9766 2722.94 62.018 2721.14C65.0594 2719.34 72.5246 2713.85 78.6073 2708.96C84.6901 2704.06 92.1553 2697.4 95.1966 2694.16C98.2472 2690.91 101.455 2686.7 102.339 2684.8C103.39 2682.55 103.952 2679.09 103.952 2674.89C103.952 2671.34 103.593 2667.71 103.16 2666.83C102.717 2665.94 100.957 2664.36 99.2426 2663.32C97.5192 2662.28 94.4593 2659.4 92.4318 2656.93C89.5655 2653.43 88.4872 2651.08 87.5656 2646.38C86.9204 2643.04 85.7868 2637.11 85.0311 2633.18C84.2846 2629.25 83.1786 2625.11 82.5796 2623.96C81.9713 2622.82 80.7087 2618.57 79.7594 2614.51C78.8101 2610.46 77.4277 2604.44 76.6811 2601.15C75.9346 2597.86 74.7641 2593.91 74.0729 2592.39C73.3909 2590.87 72.543 2587.97 72.1836 2585.94C71.8241 2583.91 71.179 2581.84 70.7458 2581.33C70.3127 2580.82 69.2805 2577.51 68.451 2573.96C67.6123 2570.41 66.6077 2567.09 66.193 2566.58C65.7875 2566.08 64.9672 2563.38 64.3774 2560.59C63.7783 2557.8 62.9304 2555.11 62.4973 2554.6C62.0641 2554.09 61.0319 2550.98 60.2116 2547.69C59.3822 2544.4 58.3223 2540.25 57.8523 2538.47C57.3822 2536.69 56.9859 2532.97 56.9767 2530.17C56.9675 2527.38 57.6495 2521.16 58.4882 2516.35C59.4375 2510.94 59.9997 2502.83 59.972 2495.15C59.9351 2486.45 59.4098 2480.48 58.2117 2475.33C56.7463 2468.98 56.5159 2464.12 56.5804 2440.3C56.6357 2418.1 56.9583 2411.19 58.2117 2405.27C59.2255 2400.43 60.0457 2389.97 60.5803 2374.85C61.0687 2361.1 61.9719 2349.03 62.8198 2344.9C63.594 2341.09 64.6447 2334.04 65.1423 2329.23C65.6492 2324.41 66.4695 2318.6 66.9672 2316.32C67.4556 2314.04 68.368 2304.71 68.9763 2295.58C69.9625 2280.87 69.8979 2277 68.3957 2261.48C67.4556 2251.84 66.7368 2241.06 66.8013 2237.51C66.8566 2233.96 67.3358 2213.22 67.8611 2191.42C68.5339 2163.76 69.2344 2149.69 70.1837 2144.87C70.9302 2141.07 71.8242 2130.08 72.1652 2120.45C72.5062 2110.81 73.3725 2100.03 74.0914 2096.48C74.8102 2092.93 75.8148 2086.29 76.3309 2081.73C76.847 2077.17 77.8424 2071.56 78.552 2069.29C79.2525 2067.01 80.1188 2062.44 80.469 2059.15C80.8192 2055.86 81.6395 2051.71 82.3031 2049.93C82.9574 2048.15 83.7869 2041.31 84.1371 2034.72C84.4965 2028.13 85.3813 2020.04 86.1186 2016.75C86.8467 2013.46 87.8421 2006.81 88.3213 2002C88.8006 1997.19 89.7959 1991.58 90.5424 1989.55C91.2797 1987.53 91.9064 1984.42 91.9249 1982.64C91.9433 1980.86 92.6345 1977.14 93.4732 1974.34C94.3119 1971.55 95.5284 1966.79 96.1828 1963.74C96.8372 1960.7 98.0445 1955.72 98.8832 1952.68C99.7126 1949.64 101.196 1944.45 102.183 1941.16C103.169 1937.87 103.971 1934.13 103.952 1932.86C103.943 1931.59 104.616 1928.28 105.445 1925.49C106.275 1922.7 107.5 1918.14 108.164 1915.35C108.837 1912.56 110.044 1907.58 110.855 1904.29C111.666 1901 112.772 1897.05 113.316 1895.53C113.86 1894.01 114.91 1890.07 115.657 1886.78C116.394 1883.49 117.353 1880.16 117.786 1879.4C118.219 1878.65 118.993 1873.67 119.5 1868.34C120.016 1863.01 120.901 1857.42 121.472 1855.9C122.034 1854.38 122.91 1849.81 123.399 1845.76C123.887 1841.7 124.873 1836.51 125.583 1834.24C126.283 1831.96 127.14 1827.81 127.472 1825.02C127.795 1822.22 128.873 1817.25 129.859 1813.96C130.836 1810.67 131.647 1806.92 131.666 1805.66C131.675 1804.39 132.311 1801.7 133.076 1799.67C133.841 1797.64 134.817 1793.08 135.251 1789.53C135.675 1785.98 136.652 1781 137.426 1778.47C138.2 1775.93 139.49 1771.16 140.31 1767.87C141.131 1764.58 142.633 1758.97 143.665 1755.42C144.697 1751.88 146.126 1746.48 146.845 1743.44C147.554 1740.4 148.771 1736.35 149.545 1734.45C150.319 1732.56 150.955 1729.65 150.946 1728C150.946 1726.35 151.619 1722.52 152.448 1719.48C153.268 1716.43 154.494 1711.24 155.167 1707.95C155.831 1704.66 157.029 1699.68 157.821 1696.89C158.614 1694.1 159.259 1690.89 159.25 1689.75C159.25 1688.61 160.079 1685.6 161.093 1683.07C162.107 1680.53 162.936 1677.41 162.936 1676.15C162.936 1674.88 163.738 1671.46 164.715 1668.55C165.692 1665.63 166.789 1661.38 167.148 1659.1C167.508 1656.82 168.319 1653.71 168.945 1652.19C169.572 1650.66 170.365 1646.52 170.706 1642.97C171.037 1639.42 171.904 1633.4 172.623 1629.6C173.342 1625.8 174.328 1615.64 174.807 1607.02C175.295 1598.4 176.097 1590.31 176.595 1589.04C177.083 1587.77 177.977 1581.97 178.576 1576.14C179.369 1568.4 179.387 1564.54 178.659 1561.85C178.106 1559.82 177.028 1557.34 176.272 1556.32C175.24 1554.96 174.89 1551.98 174.899 1544.8C174.899 1537.96 175.471 1532.95 176.835 1527.75C178.42 1521.69 179.461 1519.64 182.678 1516.22C184.825 1513.95 187.277 1510.73 188.124 1509.08C188.972 1507.43 189.903 1504.32 190.207 1502.17C190.502 1500.01 191.59 1495.55 192.631 1492.26C193.663 1488.97 195.258 1484.19 196.161 1481.66C197.073 1479.12 198.115 1475.6 198.474 1473.82C198.834 1472.04 199.903 1469.15 200.852 1467.37C201.801 1465.59 202.576 1463.42 202.566 1462.53C202.566 1461.65 202.981 1460.72 203.488 1460.46C203.995 1460.2 205.239 1458.24 206.253 1456.08C207.257 1453.92 209.331 1450.19 210.861 1447.78C212.382 1445.38 213.884 1441.85 214.188 1439.95C214.501 1438.05 215.276 1435.66 215.912 1434.65C216.538 1433.63 217.497 1430.93 218.041 1428.66C218.575 1426.38 219.635 1422.64 220.391 1420.36C221.137 1418.08 222.603 1413.51 223.635 1410.22C224.667 1406.93 225.773 1401.74 226.086 1398.7C226.409 1395.66 227.238 1391.3 227.93 1389.02C228.621 1386.74 229.46 1382.38 229.782 1379.34C230.105 1376.3 231.165 1371.42 232.132 1368.51C233.109 1365.6 233.902 1361.97 233.902 1360.45C233.902 1358.92 234.731 1355.29 235.754 1352.38C236.768 1349.47 237.597 1346.45 237.588 1345.7C237.588 1344.94 238.409 1342.76 239.432 1340.86C240.445 1338.96 241.284 1336.88 241.302 1336.25C241.312 1335.61 242.381 1332.61 243.68 1329.57C244.98 1326.52 246.897 1322.16 247.938 1319.89C248.989 1317.61 250.178 1315.11 250.583 1314.36C250.998 1313.6 252.592 1310.8 254.141 1308.13C256.528 1304.01 257.071 1301.82 257.836 1293.39C258.325 1287.94 259.164 1282.03 259.689 1280.25C260.223 1278.47 261.071 1271.01 261.578 1263.66C262.085 1256.31 262.767 1248.85 263.081 1247.07C263.624 1244.03 263.431 1243.7 259.606 1241.32C257.385 1239.94 254.832 1238.8 253.947 1238.79C253.062 1238.78 250.574 1237.88 248.417 1236.78C246.261 1235.69 242.528 1233.41 240.123 1231.71C237.717 1230.01 234.399 1228.01 232.75 1227.23C231.1 1226.47 228.142 1224.91 226.179 1223.77C224.206 1222.65 220.796 1220.06 218.594 1218.03C215.257 1214.95 214.584 1213.77 214.566 1210.89C214.557 1208.99 215.423 1205.46 216.492 1203.05C217.552 1200.65 219.368 1197.63 220.52 1196.37C221.672 1195.1 224.114 1191.89 225.948 1189.23C227.791 1186.56 229.552 1183.24 229.865 1181.85C230.188 1180.46 231.662 1176.83 233.146 1173.79C234.63 1170.74 236.842 1166.6 238.049 1164.57C239.266 1162.54 240.694 1159.84 241.229 1158.58C241.763 1157.31 242.611 1155.66 243.118 1154.89C243.625 1154.13 244.454 1152.47 244.961 1151.2C245.468 1149.93 246.298 1148.28 246.805 1147.52C247.311 1146.75 248.777 1143.86 250.058 1141.06C251.33 1138.27 252.371 1135.68 252.362 1135.3C252.344 1134.92 250.924 1131.61 249.201 1127.93C247.477 1124.25 245.339 1118.34 244.445 1114.79C243.072 1109.32 242.989 1107.5 243.901 1102.81C244.491 1099.77 244.971 1092.09 244.971 1085.76C244.971 1079.42 244.519 1072.78 243.966 1071.01C243.422 1069.24 242.418 1063.64 241.745 1058.57C241.072 1053.5 239.883 1045.82 239.118 1041.51C238.344 1037.21 237.432 1027.66 237.081 1020.31C236.676 1011.67 236.833 1003.86 237.542 998.189C238.15 993.378 239.1 988.603 239.653 987.589C240.215 986.575 241.192 983.469 241.828 980.676C242.464 977.883 243.616 973.947 244.39 971.919C245.164 969.891 245.818 967.301 245.846 966.158C245.865 965.015 246.712 962.425 247.726 960.397C248.74 958.369 249.579 955.779 249.588 954.636C249.606 953.493 250.371 950.903 251.293 948.875C252.224 946.847 253.689 943.114 254.565 940.579C255.431 938.044 256.546 934.311 257.025 932.283C257.514 930.255 258.786 926.522 259.846 923.987C261.468 920.134 261.726 918.023 261.394 911.082C261.127 905.432 260.5 901.975 259.431 900.251C258.574 898.859 257.855 897.2 257.836 896.564C257.818 895.928 256.786 893.338 255.542 890.803C254.297 888.268 253.265 885.678 253.265 885.042C253.256 884.406 252.427 882.332 251.413 880.433C250.39 878.534 249.551 876.147 249.542 875.133C249.523 874.119 248.593 871.391 247.468 869.058C246.279 866.607 242.39 861.961 238.197 857.997C234.215 854.246 230.418 850.125 229.754 848.863C229.091 847.59 226.409 842.41 223.801 837.34C221.193 832.271 218.234 825.846 217.22 823.053C216.216 820.26 214.852 816.112 214.188 813.835C213.534 811.558 212.548 808.858 211.995 807.844C211.442 806.83 210.087 803.926 208.981 801.391C207.866 798.856 204.889 792.432 202.354 787.104C199.82 781.776 196.991 775.766 196.05 773.738C195.12 771.71 192.521 766.106 190.272 761.294C188.023 756.483 185.267 750.463 184.152 747.929C183.028 745.394 178.871 736.683 174.918 728.571C170.973 720.46 166.217 710.707 164.374 706.91C162.522 703.103 160.024 698.337 158.826 696.309C157.628 694.282 155.416 690.346 153.914 687.553C152.411 684.76 150.089 680.409 148.743 677.874C147.398 675.339 146.329 672.85 146.365 672.343C146.402 671.836 145.895 670.951 145.232 670.38C144.578 669.808 143.711 667.937 143.306 666.232C142.909 664.527 142.015 661.881 141.343 660.36C140.661 658.839 139.38 654.691 138.504 651.143C137.628 647.594 136.532 642.413 136.071 639.62C135.601 636.828 134.854 632.68 134.403 630.403C133.951 628.126 133.112 624.181 132.532 621.646C131.96 619.111 130.587 613.719 129.472 609.663C127.601 602.833 127.454 600.261 127.463 574.636C127.472 552.9 127.813 544.909 129.057 537.304C129.933 531.976 131.066 522.546 131.583 516.334C132.099 510.121 133.039 503.899 133.675 502.507C134.559 500.562 134.873 483.74 135.02 430.378C135.14 385.912 135.629 354.793 136.375 344.193C137.011 335.067 137.545 321.997 137.564 315.157C137.592 308.069 138.098 301.026 138.753 298.796C139.38 296.639 140.439 294.565 141.103 294.187C141.767 293.809 145.001 290.177 148.292 286.121C151.573 282.066 154.909 277.706 155.702 276.443C156.494 275.171 159.213 271.861 161.747 269.069C164.282 266.276 168.392 260.118 170.872 255.389C174.06 249.297 177 245.204 180.908 241.425C183.949 238.493 187.682 235.793 189.203 235.424C190.723 235.064 193.627 233.986 195.654 233.037C197.682 232.078 199.857 231.294 200.493 231.285C201.129 231.285 203.405 230.502 205.562 229.552C207.718 228.594 210.935 227.312 212.704 226.686C214.474 226.068 218.004 224.999 220.538 224.317C223.073 223.634 227.837 222.077 231.137 220.841C234.436 219.606 237.957 218.297 238.971 217.919C239.985 217.551 245.791 214.822 251.874 211.873C259.965 207.946 263.615 205.623 265.468 203.217C267.744 200.277 267.91 199.576 267.09 196.479C266.583 194.58 266.168 189.907 266.168 186.109C266.177 180.809 266.656 178.228 268.242 175.039C269.375 172.753 272.251 167.978 274.638 164.438C277.016 160.889 280.269 156.124 281.873 153.847C283.467 151.561 286.287 148.095 288.14 146.123C289.992 144.159 294.48 140.223 298.112 137.366C301.743 134.518 306.932 130.6 309.632 128.664C312.332 126.719 316.821 123.687 319.613 121.917C322.406 120.147 326.138 117.88 327.908 116.884C329.677 115.898 332.23 114.368 333.576 113.492C334.922 112.616 339.484 109.445 343.714 106.44C347.944 103.436 354.147 98.2552 357.492 94.9184C360.838 91.5908 366.017 87.1755 369.013 85.1015C371.999 83.0367 376.524 80.4005 379.058 79.239C383.187 77.3494 385.694 77.0544 403.021 76.4092C417.73 75.8746 423.038 75.976 425.14 76.8516C426.66 77.4785 431.222 80.5572 435.278 83.6912C439.333 86.816 444.927 90.8902 447.72 92.7338C450.632 94.6603 453.968 96.1074 455.553 96.1259C457.074 96.1443 460.493 95.0382 463.157 93.6647C465.82 92.2913 471.083 88.7794 474.862 85.8666C478.64 82.9538 483.718 79.0823 486.152 77.2664C488.585 75.4413 492.778 72.7498 495.478 71.2749C499.727 68.9336 500.805 67.7353 503.635 62.131C505.423 58.5821 507.561 54.4342 508.39 52.9133C509.211 51.3923 510.916 48.4888 512.169 46.4609C513.432 44.433 516.759 39.9163 519.57 36.432C522.989 32.1826 528.915 26.864 537.551 20.301C544.629 14.9179 551.467 9.88499 552.758 9.1107C554.039 8.34563 557.366 6.79705 560.158 5.67249C562.951 4.55715 568.13 3.20215 571.679 2.67674C575.227 2.15133 579.586 1.3586 581.356 0.906936C583.125 0.464486 586.554 0.0589071 588.959 0.00360083ZM604.397 133.965C601.097 136.573 595.088 140.73 591.033 143.191C586.978 145.662 582.72 148.547 581.559 149.616C580.407 150.676 579.476 152.059 579.485 152.695C579.503 153.331 578.6 156.023 577.494 158.686C576.379 161.35 572.96 166.586 569.891 170.319C566.822 174.062 562.232 178.495 559.698 180.173C557.163 181.851 551.983 184.653 548.177 186.404C544.38 188.146 539.606 190.008 537.578 190.543C535.496 191.087 531.883 193.308 529.284 195.622L524.676 199.733C523.689 218.555 523.063 221.984 521.054 227.128C519.662 230.677 517.948 235.442 517.247 237.728C516.547 240.005 515.091 244.365 514.022 247.407C512.953 250.449 511.552 253.555 510.916 254.32C510.271 255.085 509.533 256.32 509.275 257.086C509.008 257.851 507.349 260.745 505.57 263.538C503.792 266.331 500.52 270.479 498.289 272.756C496.059 275.032 491.967 278.166 489.184 279.715C486.4 281.264 480.594 283.43 476.29 284.536C470.521 286.011 465.129 286.61 455.83 286.794C448.89 286.932 442.743 287.458 442.162 287.965C441.379 288.656 441.526 292.758 442.734 304.096C443.618 312.466 444.522 321.794 444.734 324.836C444.955 328.016 444.319 335.067 443.241 341.428C441.913 349.244 440.531 354.111 438.54 358.019C436.983 361.061 435.729 364.38 435.757 365.394C435.775 366.408 436.301 367.956 436.918 368.823C437.536 369.698 439.913 371.026 442.19 371.781C444.466 372.528 448.208 373.809 450.484 374.621C452.761 375.432 456.503 376.934 458.779 377.957C461.056 378.981 463.544 380.17 464.309 380.612C465.074 381.054 469.636 383.35 474.447 385.719C479.258 388.088 485.175 390.807 487.58 391.766C490.446 392.908 496.326 393.839 504.63 394.466C512.741 395.084 518.565 395.987 520.823 397.001C522.971 397.96 525.496 400.255 527.275 402.854C528.887 405.205 531.247 407.961 532.509 408.984C533.781 409.998 537.717 411.934 541.265 413.289C545.339 414.837 550.435 415.934 555.089 416.257C560.591 416.653 563.983 416.368 568.453 415.16C571.752 414.266 575.9 413.335 577.669 413.095C579.439 412.856 583.383 413.363 586.425 414.229C589.466 415.095 594.646 416.699 597.945 417.787C602.95 419.455 606.046 419.778 616.838 419.76C628.073 419.741 630.571 419.446 636.193 417.501C639.741 416.266 644.386 414.201 646.506 412.911C649.123 411.325 651.123 409.067 652.708 405.952C653.989 403.417 655.058 400.614 655.068 399.73C655.077 398.845 655.86 396.356 656.8 394.199C657.75 392.042 659.233 388.207 660.1 385.673C660.966 383.138 662.293 378.575 663.049 375.533C663.795 372.491 664.855 368.131 665.399 365.855C666.229 362.343 666.063 360.637 664.33 354.793C663.206 350.986 661.74 347.262 661.067 346.497C660.385 345.732 659.538 343.87 659.178 342.349C658.809 340.828 657.74 338.026 656.8 336.127C655.86 334.229 655.077 331.943 655.068 331.058C655.049 330.173 654.257 327.785 653.298 325.757C652.34 323.73 650.856 319.167 649.999 315.618C649.151 312.069 648.091 307.506 647.658 305.478C647.225 303.451 646.856 298.261 646.838 293.956C646.828 289.652 646.377 283.845 645.851 281.052C645.326 278.259 644.285 270.691 643.538 264.229C642.792 257.768 641.769 251.647 641.262 250.633C640.755 249.619 640.064 245.987 639.732 242.568C639.253 237.572 639.538 234.981 641.17 229.432C642.294 225.625 644.017 220.03 645.003 216.988C646.063 213.707 646.801 208.831 646.81 205.005C646.819 200.572 646.1 196.313 644.506 191.409C643.225 187.483 641.354 182.606 640.34 180.579C639.142 178.191 638.488 175.02 638.478 171.591C638.478 168.678 638.165 165.83 637.787 165.259C637.418 164.696 636.285 163.987 635.271 163.692C634.257 163.388 632.718 162.401 631.843 161.489C630.976 160.585 630.211 158.797 630.147 157.534C630.082 156.262 630.184 153.036 630.359 150.354C630.608 146.63 630.147 144.261 628.368 140.325C627.096 137.495 625.52 134.711 624.866 134.14C624.202 133.568 623.686 132.591 623.714 131.955C623.732 131.319 622.718 129.559 621.447 128.038C620.184 126.517 618.626 125.272 617.991 125.272C617.355 125.281 615.382 126.166 613.613 127.254C611.843 128.342 607.696 131.365 604.397 133.965Z" fill="var(--fill-0, black)" fill-opacity="0.99"/>
<path id="Vector_3" fill-rule="evenodd" clip-rule="evenodd" d="M603.014 15.3052L608.35 21.2045C611.281 24.4491 613.659 27.9334 613.64 28.9474C613.613 29.9613 611.622 32.5515 609.226 34.69C606.82 36.8378 605.373 38.6076 606.009 38.6076C606.645 38.6168 607.161 38.2112 607.161 37.7042C607.161 37.1972 607.779 36.7824 608.544 36.7824C609.309 36.7824 609.926 36.3676 609.926 35.8607C609.926 35.3537 610.756 34.9389 611.77 34.9389C612.783 34.9389 613.41 35.3537 613.152 35.8607C612.894 36.3676 612.894 36.7824 613.152 36.7824C613.41 36.7824 614.23 36.5704 614.995 36.3216C615.806 36.0542 616.092 35.3906 615.686 34.7269C615.198 33.925 615.465 33.7867 616.608 34.266C617.493 34.6347 620.396 34.266 623.059 33.4456C625.723 32.6253 628.939 31.1596 630.202 30.1918C631.474 29.2147 633.124 28.422 633.889 28.4128C634.654 28.4128 635.769 28.9382 636.377 29.6018C637.262 30.5513 636.764 30.9292 633.843 31.4823C631.843 31.8602 628.543 32.7912 626.516 33.5562C624.488 34.3121 622.875 35.2523 622.94 35.6302C622.995 36.0082 622.995 36.8378 622.94 37.4738C622.875 38.119 621.603 38.626 620.064 38.626C618.544 38.626 617.299 39.0408 617.299 39.5478C617.299 40.0547 615.742 41.3821 613.843 42.4974C611.945 43.6128 610.903 44.6544 611.539 44.8019C612.175 44.9586 614.35 44.2488 616.378 43.2348C618.414 42.2117 623.668 40.9765 628.128 40.4603C632.561 39.9533 637.234 39.3081 638.497 39.0316C639.769 38.7458 642.561 39.1698 644.718 39.9533C646.874 40.7461 648.635 41.8061 648.635 42.3131C648.635 42.82 649.151 43.751 649.787 44.3871C650.423 45.0231 652.017 46.9865 653.335 48.7655C654.653 50.5353 657.141 52.6646 658.865 53.4849C660.588 54.3053 664.072 55.6419 666.606 56.4623C669.141 57.2734 672.357 57.9555 673.749 57.9647C675.141 57.974 678.044 56.7941 680.2 55.3469C682.357 53.8997 686.191 51.8073 688.726 50.692C692.67 48.959 695.923 48.5535 711.305 47.8806C721.185 47.4381 730.733 46.6362 732.503 46.0831C734.272 45.5301 741.747 45.0692 749.092 45.0692C756.557 45.0599 767.34 45.7328 773.515 46.5901C782.234 47.7976 786.529 47.9359 793.791 47.2538C801.192 46.5624 804.915 46.7007 812.685 47.9543C818.012 48.8208 825.265 50.4062 828.813 51.4847C832.361 52.5724 836.923 53.9366 838.951 54.5265C840.979 55.1165 844.711 56.5637 847.246 57.7435C849.78 58.9234 852.895 60.472 854.158 61.1909C855.421 61.9007 858.222 63.3387 860.379 64.3803C862.536 65.4219 864.812 66.2883 865.448 66.2976C866.084 66.2976 868.25 67.4406 870.277 68.8324C872.296 70.2151 874.784 72.2706 875.807 73.4044C876.821 74.529 878.664 76.815 879.899 78.4741C881.125 80.1333 884.655 83.6914 887.733 86.3922C891.272 89.4893 894.811 91.6923 897.355 92.3837C899.576 92.9828 901.861 94.006 902.424 94.6604C902.995 95.3241 903.88 95.8403 904.387 95.8219C904.894 95.8034 906.884 97.5456 908.801 99.7025C911.631 102.873 912.285 104.311 912.267 107.298C912.248 109.326 912.644 112.543 913.151 114.442C913.649 116.341 915.234 119.041 916.654 120.433C918.082 121.825 920.331 125.042 921.649 127.577C922.967 130.112 924.911 135.191 925.971 138.869C927.249 143.324 927.894 148.24 927.907 153.617C927.916 158.65 927.381 163.24 926.469 165.83C925.667 168.107 924.681 174.956 924.275 181.04C923.87 187.123 923.741 195.207 923.981 199.014C924.285 203.964 923.833 208.803 922.358 216.067C921.234 221.644 919.575 227.654 918.681 229.433C917.787 231.202 916.174 236.18 915.087 240.494C914.008 244.798 913.133 249.472 913.133 250.864C913.142 252.256 912.829 253.555 912.451 253.749C912.073 253.942 911.179 256.745 910.469 259.971C909.769 263.197 908.672 266.46 908.046 267.225C907.419 267.981 906.599 269.64 906.211 270.912C905.834 272.175 904.709 274.249 903.732 275.521C902.755 276.784 899.299 280.517 896.064 283.817C892.829 287.108 890.157 290.122 890.138 290.5C890.12 290.878 889.06 292.436 887.797 293.957C886.526 295.477 885.493 297.238 885.493 297.874C885.503 298.51 884.673 299.542 883.65 300.179C882.636 300.815 881.816 301.644 881.834 302.022C881.853 302.4 880.498 304.336 878.839 306.318C877.18 308.299 872.83 313.074 869.18 316.918C865.522 320.771 861.586 325.14 860.425 326.643C859.255 328.145 857.448 330.219 856.407 331.251C855.365 332.284 852.748 334.376 850.61 335.897C848.462 337.418 846.739 339.077 846.776 339.584C846.813 340.091 845.79 341.75 844.508 343.271C843.227 344.792 842.177 346.35 842.177 346.728C842.177 347.106 841.753 347.935 841.237 348.571C840.721 349.208 839.31 351.171 838.094 352.95C836.877 354.72 834.601 358.563 833.034 361.476C831.477 364.389 830.205 367.707 830.214 368.85C830.232 369.993 829.606 372.482 828.832 374.381C828.067 376.28 827.163 380.428 826.841 383.599C826.518 386.77 825.633 390.604 824.878 392.125C824.122 393.646 822.952 397.379 822.279 400.421C821.597 403.463 820.408 408.441 819.643 411.482C818.869 414.524 818.242 419.29 818.251 422.083C818.251 424.876 817.615 429.024 816.832 431.3C816.058 433.577 814.97 439.799 814.427 445.127C813.883 450.455 813.09 458.539 812.657 463.102C812.095 469.111 812.251 474.071 813.228 481.076C813.966 486.404 815.191 493.446 815.947 496.746C817.099 501.715 817.956 503.291 820.979 505.964C822.979 507.734 825.587 510.02 826.758 511.034C827.938 512.048 830.961 513.882 833.467 515.108C835.974 516.334 839.486 518.085 841.255 518.998C843.025 519.91 845.098 520.666 845.863 520.685C846.628 520.703 850.564 522.39 854.619 524.436C858.674 526.482 862.628 528.658 863.402 529.275C864.176 529.884 866.766 532.981 869.162 536.152C871.549 539.323 873.503 542.226 873.494 542.604C873.484 542.982 874.554 544.743 875.871 546.522C877.18 548.292 879.162 550.246 880.258 550.863C881.364 551.481 882.885 552.264 883.65 552.605C884.415 552.947 887.42 555.039 890.332 557.251C893.244 559.463 896.046 561.27 896.553 561.27C897.06 561.27 897.474 561.685 897.474 562.192C897.474 562.699 898.719 563.528 900.239 564.035C901.76 564.542 903.004 565.372 903.004 565.879C903.004 566.386 904.709 567.317 906.783 567.953C908.866 568.589 911.253 569.843 912.082 570.746C912.921 571.649 914.22 572.378 914.985 572.35C915.75 572.331 917.409 573.032 918.672 573.917C919.944 574.793 923.252 576.719 926.045 578.194C928.838 579.669 932.358 581.568 933.879 582.425C935.399 583.273 938.717 585.292 941.252 586.923C943.786 588.545 946.477 589.864 947.242 589.864C948.007 589.854 949.869 590.619 951.39 591.56C952.91 592.491 955.5 593.523 957.15 593.855C958.8 594.187 961.095 595.385 962.265 596.528C963.426 597.671 965.611 599.68 967.104 600.998C968.597 602.317 971.168 604.907 972.818 606.76C974.467 608.612 975.813 610.327 975.813 610.585C975.813 610.843 977.223 613.221 978.937 615.885C980.661 618.549 982.799 622.596 983.693 624.872C984.587 627.149 985.859 629.638 986.531 630.403C987.204 631.159 987.757 632.403 987.766 633.168C987.785 633.924 988.826 636.524 990.098 638.929C991.361 641.335 992.384 643.824 992.375 644.46C992.356 645.096 993.186 646.755 994.218 648.147C995.241 649.539 996.089 651.512 996.089 652.525C996.089 653.539 996.697 655.3 997.434 656.443C998.172 657.586 999.655 661.006 1000.72 664.048C1001.78 667.089 1003.07 671.025 1003.58 672.804C1004.1 674.574 1005.09 677.902 1005.8 680.179C1006.51 682.455 1007.56 687.23 1008.13 690.779C1008.72 694.328 1009.68 698.061 1010.28 699.075C1010.88 700.089 1011.94 703.195 1012.63 705.988C1013.31 708.781 1014.21 711.676 1014.6 712.441C1015.01 713.196 1016.16 717.344 1017.17 721.658C1018.17 725.963 1019.42 731.982 1019.95 735.024C1020.48 738.066 1021.44 745.947 1022.1 752.538C1022.74 759.128 1023.25 773.231 1023.22 783.878C1023.18 794.524 1022.68 817.126 1022.09 834.114C1021.5 851.093 1020.59 869.759 1020.05 875.594C1019.53 881.42 1019.34 887.642 1019.65 889.421C1019.97 891.19 1021.06 895.136 1022.11 898.177C1023.15 901.219 1024.77 904.851 1025.71 906.243C1026.65 907.635 1027.43 909.294 1027.44 909.93C1027.45 910.566 1028.27 912.115 1029.27 913.387C1030.26 914.649 1031.09 916.723 1031.11 917.996C1031.13 919.258 1031.99 922.171 1033 924.448C1034.01 926.725 1034.84 929.425 1034.82 930.439C1034.82 931.453 1036.36 935.306 1041.71 945.704L1039.61 948.211C1038.45 949.594 1036.41 952.995 1035.06 955.788C1033.13 959.825 1032.66 962.084 1032.77 966.849C1032.84 970.14 1033.38 974.288 1033.96 976.067C1034.58 977.984 1037.49 981.681 1041.12 985.183C1044.48 988.419 1047.89 992.567 1048.69 994.401C1049.48 996.235 1051.45 999.074 1053.06 1000.72C1055.15 1002.85 1055.99 1004.59 1055.99 1006.72C1055.99 1008.37 1056.55 1011.79 1057.24 1014.32C1058.41 1018.68 1058.36 1019.13 1056.3 1022.62C1055.01 1024.82 1052.93 1026.79 1051.15 1027.5C1049.51 1028.17 1046.92 1029.94 1045.4 1031.46C1043.18 1033.66 1041.8 1034.22 1038.48 1034.28C1036.21 1034.32 1032.99 1033.68 1031.34 1032.86C1029.69 1032.05 1026.69 1031.37 1024.66 1031.37C1021.27 1031.37 1020.75 1031.72 1018.2 1035.75C1016.67 1038.16 1015.42 1040.44 1015.43 1040.82C1015.43 1041.2 1014.51 1042.92 1013.37 1044.66C1012.15 1046.5 1011.41 1048.87 1011.55 1050.42C1011.69 1051.86 1012.52 1053.86 1013.4 1054.88C1014.27 1055.89 1015.6 1057.97 1016.36 1059.49C1017.12 1061.01 1018 1062.46 1018.3 1062.71C1018.6 1062.97 1019.96 1066.7 1021.31 1071.01C1023.51 1078 1023.71 1079.74 1023.18 1087.14C1022.61 1095.2 1022.71 1095.81 1026.73 1108.34C1029 1115.44 1031.73 1125.19 1032.79 1130C1033.97 1135.39 1035.14 1145.87 1035.81 1157.2C1036.67 1171.55 1036.67 1178.59 1035.8 1189C1035.18 1196.34 1034.11 1205.27 1033.39 1208.81C1032.68 1212.36 1031.07 1221.49 1029.82 1229.09C1028.36 1237.92 1027.34 1248.75 1026.98 1259.05C1026.64 1268.95 1025.89 1276.96 1025.06 1279.79C1023.98 1283.46 1023.82 1287.69 1024.28 1300.53C1024.73 1312.85 1024.54 1318.5 1023.49 1324.5C1022.73 1328.81 1021.44 1333.68 1020.62 1335.33C1019.8 1336.98 1019.14 1338.84 1019.15 1339.48C1019.17 1340.11 1018.34 1342.6 1017.3 1345.01C1015.98 1348.12 1014.24 1350.19 1011.3 1352.15C1007.63 1354.59 1006.37 1354.92 1000.47 1354.9C995.803 1354.88 992.531 1354.32 989.637 1353.03C987.361 1352.01 984.974 1351.19 984.338 1351.2C983.702 1351.22 982.043 1350.67 980.651 1349.98C979.26 1349.3 976.246 1347.88 973.97 1346.82C971.693 1345.76 967.749 1343.98 965.214 1342.88C961.528 1341.25 959.684 1340.98 955.998 1341.48C953.463 1341.84 949.178 1343.03 946.477 1344.14C942.736 1345.68 941.455 1346.71 941.104 1348.46C940.856 1349.73 939.869 1352.21 938.911 1353.99C937.952 1355.77 937.141 1358.25 937.105 1359.52C937.077 1360.79 936.45 1362.45 935.722 1363.21C934.985 1363.97 933.132 1366.15 931.602 1368.05C930.054 1369.96 927.99 1371.51 926.967 1371.51C925.953 1371.51 922.322 1372.26 918.902 1373.19C913.308 1374.71 911.843 1374.75 904.387 1373.7C899.825 1373.06 891.945 1371.88 886.876 1371.09C881.779 1370.3 877.042 1369.05 876.277 1368.3C875.512 1367.55 873.964 1366.93 872.821 1366.93C871.678 1366.91 870.019 1366.07 869.134 1365.05C868.25 1364.03 867.107 1363.2 866.6 1363.22C866.093 1363.23 863.78 1361.27 861.466 1358.84C859.144 1356.43 856.987 1353.62 856.674 1352.61C856.361 1351.6 855.439 1350.14 854.628 1349.38C853.817 1348.63 853.163 1347.37 853.172 1346.62C853.19 1345.86 852.269 1344.3 851.144 1343.13C850.011 1341.98 848.259 1341.05 847.246 1341.06C846.232 1341.07 844.158 1340.25 842.638 1339.24C840.896 1338.09 838.334 1337.42 835.725 1337.42C832.444 1337.43 831.099 1337.95 829.274 1339.86C828.011 1341.2 826.454 1344.2 825.818 1346.53C825.191 1348.86 824.666 1355.54 824.657 1361.37C824.647 1367.19 825.053 1373.41 825.569 1375.19C826.085 1376.97 826.509 1380.18 826.509 1382.34C826.509 1384.49 827.302 1390.5 828.279 1395.7C829.255 1400.9 830.537 1411.37 831.117 1418.98C831.707 1426.58 832.739 1434.46 833.403 1436.49C834.066 1438.52 834.794 1442.05 835.025 1444.33C835.246 1446.6 836.103 1449.92 836.914 1451.7C837.725 1453.48 838.794 1457 839.292 1459.54C839.781 1462.07 840.822 1466.02 841.587 1468.29C842.361 1470.57 843.633 1474.72 844.416 1477.51C845.209 1480.3 846.398 1488.18 847.08 1495.02C847.753 1501.87 848.582 1507.98 848.923 1508.62C849.273 1509.26 849.983 1513.19 850.508 1517.38C851.024 1521.56 851.928 1526.43 852.49 1528.21C853.061 1529.99 854.305 1534.75 855.255 1538.81C856.213 1542.86 858.01 1551.57 859.245 1558.17C860.609 1565.38 861.872 1576.75 862.416 1586.74C862.913 1595.87 864.37 1610.8 865.651 1619.92C866.941 1629.05 868.609 1642.11 869.374 1648.96C870.13 1655.81 871.19 1664.72 871.724 1668.78C872.259 1672.83 873.061 1680.3 873.494 1685.37C873.936 1690.44 874.95 1698.53 875.742 1703.34C876.922 1710.48 877.199 1720.9 877.217 1759.57C877.236 1785.68 877.623 1813.27 878.093 1820.87C878.553 1828.47 879.549 1837.6 880.305 1841.15C881.051 1844.7 881.917 1852.99 882.231 1859.58C882.535 1866.18 883.383 1874.27 884.111 1877.56C884.83 1880.85 885.447 1886.45 885.466 1890C885.493 1893.55 885.945 1899.16 886.489 1902.45C887.032 1905.74 888.065 1910 888.784 1911.9C889.512 1913.79 890.101 1917.43 890.101 1919.96C890.101 1922.5 890.894 1928.62 891.862 1933.56C892.894 1938.81 893.871 1949.05 894.221 1958.21C894.553 1966.83 895.447 1981.35 896.203 1990.48C896.968 1999.6 897.963 2020.34 898.405 2036.56C898.857 2052.79 899.649 2067.93 900.156 2070.21C900.672 2072.49 901.751 2082.24 902.553 2091.87C903.354 2101.5 904.396 2112.7 904.857 2116.76C905.327 2120.81 906.184 2133.46 906.774 2144.87C907.354 2156.28 908.156 2172.87 908.543 2181.74C908.93 2190.61 909.281 2210.95 909.317 2226.91C909.363 2242.88 908.967 2258.85 908.451 2262.4C907.926 2265.95 907.124 2272.8 906.663 2277.61C906.211 2282.42 905.594 2290.1 905.308 2294.66C905.013 2299.22 904.396 2305.03 903.926 2307.57C903.456 2310.1 902.58 2316.32 901.99 2321.39C901.391 2326.46 900.396 2331.64 899.779 2332.91C899.152 2334.18 898.359 2338.95 898 2343.51C897.65 2348.08 896.802 2353.88 896.11 2356.42C895.428 2358.95 894.608 2364.55 894.295 2368.86C893.981 2373.18 892.922 2379.8 891.926 2383.61C890.94 2387.41 890.12 2392.6 890.101 2395.13C890.083 2397.67 889.042 2403.69 887.797 2408.5C886.553 2413.31 885.512 2418.7 885.484 2420.48C885.456 2422.26 884.627 2425.99 883.65 2428.78C882.341 2432.49 881.853 2436.44 881.807 2443.53C881.77 2448.85 881.337 2456.11 880.839 2459.66C880.351 2463.21 879.494 2472.75 878.941 2480.86C878.388 2488.97 877.669 2499.75 877.337 2504.82C877.005 2509.89 877.051 2516.84 877.429 2520.26C877.807 2523.68 878.95 2528.36 879.964 2530.63C880.977 2532.91 881.807 2536.44 881.807 2538.47C881.807 2540.5 882.599 2544.33 883.576 2547C884.553 2549.66 885.862 2557.02 886.498 2563.36C887.364 2572.11 887.383 2575.54 886.581 2577.64C885.991 2579.17 885.521 2581.44 885.539 2582.71C885.549 2583.98 884.71 2586.16 883.678 2587.55C882.655 2588.95 881.807 2590.5 881.807 2591.01C881.807 2591.52 881.493 2591.91 881.116 2591.9C880.738 2591.89 879.346 2592.82 878.037 2593.98C876.719 2595.13 874.028 2597.56 872.047 2599.38C870.065 2601.2 865.024 2605.03 860.84 2607.91C856.656 2610.78 852.72 2613.14 852.084 2613.16C851.448 2613.18 849.273 2614.21 847.246 2615.46C845.218 2616.71 842.831 2617.73 841.946 2617.73C841.062 2617.74 838.776 2618.87 836.877 2620.24C834.979 2621.61 832.693 2623.48 831.808 2624.39C830.924 2625.3 830.196 2626.66 830.196 2627.42C830.196 2628.18 829.882 2628.78 829.504 2628.77C829.126 2628.75 828.26 2629.89 827.587 2631.3C826.905 2632.71 826.574 2634.7 826.85 2635.72C827.117 2636.73 829.375 2639.63 831.854 2642.17C834.343 2644.7 837.781 2648.06 839.504 2649.62C841.227 2651.18 843.679 2652.8 844.942 2653.21C846.213 2653.63 848.812 2655.05 850.739 2656.36C852.656 2657.68 854.416 2659.28 854.656 2659.91C854.886 2660.55 855.596 2661.06 856.232 2661.06C856.868 2661.06 858.582 2663.65 860.056 2666.83C861.522 2670 863.43 2673.42 864.296 2674.43C865.153 2675.44 867.531 2679.79 869.577 2684.11C871.614 2688.42 873.982 2694.02 874.839 2696.55C875.687 2699.09 877.632 2705.94 881.899 2722.36L880.258 2728.81C879.364 2732.36 878 2736.21 877.226 2737.36C876.452 2738.5 874.784 2739.67 873.512 2739.96C872.249 2740.24 870.591 2741.01 869.826 2741.65C869.061 2742.31 866.369 2743.51 863.835 2744.33C861.301 2745.15 856.112 2746.63 852.315 2747.63C848.518 2748.63 837.311 2750.28 827.431 2751.31C817.551 2752.33 804.27 2753.6 797.939 2754.14C791.607 2754.67 782.686 2755.09 778.124 2755.06C773.561 2755.04 765.884 2754.66 761.073 2754.23C756.263 2753.79 751.074 2752.79 749.553 2752C748.032 2751.2 744.309 2749.4 741.277 2747.98C737.596 2746.26 733.443 2743.1 728.816 2738.49C725.001 2734.69 721.158 2730.02 720.273 2728.12C719.397 2726.22 718.264 2724.46 717.757 2724.21C717.25 2723.95 715.904 2722.03 714.762 2719.94C713.619 2717.85 712.107 2715.04 711.398 2713.72C710.688 2712.39 709.545 2710.99 708.863 2710.61C708.181 2710.23 707.619 2709.5 707.619 2709C707.619 2708.49 705.932 2706.31 703.868 2704.16C701.803 2702 699.877 2699.2 699.582 2697.94C699.297 2696.66 698.283 2694.49 697.343 2693.1C696.403 2691.7 695.619 2689.83 695.592 2688.95C695.573 2688.06 694.016 2685.98 692.136 2684.32C688.947 2681.51 688.292 2681.32 682.044 2681.33C675.463 2681.34 675.251 2681.42 667.989 2686.41C662.302 2690.32 660.146 2691.34 658.542 2690.85C657.399 2690.5 655.012 2688.86 653.243 2687.2C651.473 2685.55 649.289 2683.55 648.404 2682.76C647.52 2681.98 646.478 2681.35 646.1 2681.36C645.722 2681.37 644.377 2680.03 643.105 2678.38C641.842 2676.73 639.99 2674.14 638.994 2672.61C638.008 2671.07 636.598 2668.78 635.87 2667.52C635.142 2666.24 633.806 2663.77 632.902 2661.99C631.999 2660.21 629.142 2656.27 626.562 2653.23C623.981 2650.19 621.613 2646.87 621.299 2645.86C620.995 2644.84 619.161 2642.14 617.244 2639.86C615.318 2637.59 611.852 2631.98 609.53 2627.42C605.41 2619.34 605.309 2618.9 605.309 2610.6C605.318 2605.91 605.631 2601.91 606.009 2601.72C606.387 2601.53 607.502 2598.73 608.479 2595.5C609.447 2592.27 610.562 2589.21 610.949 2588.71C611.336 2588.2 612.857 2585.29 614.322 2582.25C615.788 2579.21 617.944 2574.45 619.106 2571.65C620.276 2568.86 621.695 2565.58 622.258 2564.35C622.94 2562.88 623.253 2554.22 623.179 2538.54C623.106 2522.71 622.58 2511.18 621.576 2503.44C620.746 2497.1 619.401 2489.02 618.58 2485.47C617.751 2481.92 616.304 2476.53 615.355 2473.48C614.405 2470.44 613.613 2466.71 613.594 2465.19C613.567 2463.67 612.931 2459.72 612.175 2456.43C611.41 2453.14 610.359 2447.32 609.834 2443.53C609.309 2439.72 608.111 2434.74 607.18 2432.47C606.24 2430.19 605.244 2425.83 604.977 2422.79C604.701 2419.74 603.825 2415.38 603.033 2413.11C602.24 2410.83 601.217 2405.84 600.765 2402.05C600.304 2398.24 599.309 2393.06 598.544 2390.52C597.779 2387.99 596.931 2381.14 596.655 2375.32C596.323 2368.22 595.623 2363.5 594.554 2361.03C593.125 2357.76 592.941 2353.65 592.913 2324.62C592.895 2306.62 592.895 2274.26 592.913 2252.72C592.931 2231.17 592.941 2202.97 592.931 2190.04C592.922 2168.06 593.06 2166.17 594.968 2161C596.083 2157.96 596.996 2153.81 596.987 2151.79C596.977 2149.76 597.807 2146.23 598.821 2143.95C599.834 2141.67 600.682 2138.97 600.692 2137.96C600.71 2136.95 601.715 2134.04 602.94 2131.51C604.166 2128.97 606.258 2124.62 610.018 2116.76L609.954 2077.58C609.926 2056.03 609.687 2025.96 609.429 2010.76C609.161 1995.55 608.535 1976.25 608.028 1967.89C607.521 1959.53 606.507 1939.41 605.779 1923.19C604.885 1903.43 603.991 1892.01 603.051 1888.62C602.286 1885.83 601.392 1880.85 601.069 1877.56C600.747 1874.27 599.733 1869.7 598.83 1867.42C597.917 1865.14 596.922 1861.2 596.618 1858.66C596.305 1856.13 595.438 1853.12 594.692 1851.98C593.945 1850.84 593.088 1847.73 592.793 1845.07C592.498 1842.4 591.457 1837.84 590.489 1834.93C589.521 1832.01 588.729 1828.59 588.729 1827.32C588.729 1826.05 587.945 1823.05 586.987 1820.64C586.019 1818.23 584.932 1814.19 584.563 1811.65C584.194 1809.12 583.568 1806.63 583.181 1806.12C582.794 1805.61 581.402 1800.64 580.093 1795.06C578.775 1789.48 577.024 1781.6 576.204 1777.55C575.374 1773.49 574.351 1768.1 573.918 1765.56C573.494 1763.03 572.702 1756.81 572.158 1751.74C571.614 1746.67 570.545 1736.71 569.771 1729.61C569.006 1722.52 567.955 1711.11 567.43 1704.27C566.914 1697.42 566.407 1686.21 566.149 1666.88L563.117 1662.76C561.439 1660.49 558.334 1657.48 556.205 1656.06C554.066 1654.63 551.283 1653.23 550.02 1652.92C548.721 1652.62 544.998 1653.25 541.495 1654.36C538.076 1655.45 534.97 1656.85 534.592 1657.49C534.224 1658.12 533.468 1661.74 532.924 1665.55C532.076 1671.4 532.187 1673.68 533.606 1680.3C534.915 1686.42 535.284 1692.21 535.284 1706.8C535.274 1720.02 534.86 1727.55 533.837 1732.61C533.044 1736.54 531.809 1743.28 531.09 1747.59C530.371 1751.9 528.98 1760.4 527.993 1766.49C527.017 1772.57 525.8 1778.58 525.302 1779.85C524.805 1781.11 524.095 1785.26 523.717 1789.07C523.339 1792.87 522.51 1797.43 521.874 1799.21C521.238 1800.99 520.436 1805.14 520.086 1808.43C519.736 1811.72 518.657 1816.81 517.68 1819.72C516.713 1822.63 515.911 1826.36 515.911 1828.01C515.902 1829.66 515.275 1833.29 514.51 1836.08C513.745 1838.87 512.713 1844.26 512.215 1848.06C511.708 1851.86 510.473 1857.36 509.46 1860.28C508.307 1863.6 507.625 1867.97 507.625 1872.03C507.625 1876.18 506.796 1881.37 505.303 1886.55C504.031 1890.98 502.99 1896.17 502.999 1898.07C503.008 1899.97 502.4 1902.77 501.635 1904.29C500.87 1905.81 500.022 1909.03 499.746 1911.43C499.46 1913.84 498.455 1918.51 497.515 1921.8C496.566 1925.09 495.091 1930.7 494.234 1934.25C493.377 1937.8 492.317 1942.36 491.884 1944.39C491.451 1946.42 490.483 1952.22 489.737 1957.29C488.99 1962.36 487.912 1970.46 487.35 1975.27C486.787 1980.08 485.755 1986.72 485.055 1990.02C484.354 1993.31 483.368 1998.91 482.843 2002.46C482.327 2006.01 481.46 2012.64 480.907 2017.21C480.354 2021.77 479.534 2027.37 479.083 2029.65C478.631 2031.93 477.802 2037.32 477.239 2041.63C476.677 2045.95 475.82 2051.75 475.332 2054.54C474.843 2057.33 473.627 2071.64 472.622 2086.34C471.627 2101.04 470.576 2114.94 470.3 2117.22C470.023 2119.5 469.396 2128.62 468.908 2137.5C468.419 2146.37 467.433 2155.91 466.714 2158.7C465.995 2161.49 465.129 2166.88 464.788 2170.68C464.447 2174.48 463.544 2180.3 462.788 2183.59C462.033 2186.88 461.046 2195.8 460.604 2203.41C460.152 2211.01 459.351 2218.68 458.807 2220.46C458.272 2222.24 457.581 2228.03 457.268 2233.36C456.964 2238.69 456.171 2244.29 455.507 2245.81C454.853 2247.33 453.848 2255.62 453.286 2264.24C452.65 2274.03 451.609 2282.16 450.521 2285.9C449.563 2289.19 447.683 2298.12 446.346 2305.72C445.019 2313.33 442.946 2322.45 441.747 2326C440.559 2329.55 438.476 2335.36 437.121 2338.91C435.766 2342.45 434.448 2346.19 434.181 2347.2C433.914 2348.22 431.637 2353.61 429.121 2359.18C426.596 2364.76 424.154 2370.05 423.684 2370.94C423.223 2371.82 421.951 2375.14 420.873 2378.31C418.965 2383.92 418.9 2386.1 418.08 2462.42C417.306 2534.47 417.094 2541.51 415.426 2549.99C414.338 2555.55 413.619 2563.05 413.61 2568.89C413.61 2574.22 412.808 2584.16 411.831 2591.01C410.864 2597.86 409.592 2609.47 409.011 2616.82C408.431 2624.17 407.361 2635.16 406.643 2641.25C405.924 2647.33 405.325 2654.38 405.325 2656.92C405.325 2659.45 404.449 2665.67 403.38 2670.74C402.32 2675.81 400.551 2681.41 399.445 2683.19C398.348 2684.97 396.938 2687.24 396.311 2688.26C395.694 2689.27 394.772 2691.03 394.265 2692.17C393.651 2693.56 393.651 2696.71 394.265 2701.62C394.772 2705.68 395.555 2709.72 396.016 2710.61C396.468 2711.49 397.104 2714.92 398.016 2724.21L392.68 2728.15C389.583 2730.46 386.394 2732.08 385.049 2732.04C383.777 2732 381.703 2732.79 380.441 2733.77C378.892 2734.98 375.409 2735.92 369.842 2736.63C365.28 2737.21 358.644 2738.31 355.096 2739.06C351.548 2739.81 348.027 2740.95 347.262 2741.59C346.497 2742.23 344.838 2743.18 343.576 2743.71C342.304 2744.24 338.682 2746.81 335.511 2749.42C332.341 2752.02 329.438 2754.15 329.06 2754.14C328.682 2754.12 327.539 2754.96 326.525 2756.01C325.512 2757.06 323.751 2757.9 322.608 2757.88C321.466 2757.86 319.189 2758.55 317.54 2759.41C315.89 2760.27 311.014 2761.92 306.71 2763.07C302.406 2764.22 297.531 2765.18 295.881 2765.2C294.185 2765.21 291.651 2764.32 290.047 2763.15C287.402 2761.22 286.324 2761.09 262.011 2761.33L252.334 2766.82C247.007 2769.83 239.127 2774.04 234.823 2776.17C230.519 2778.29 226.575 2780.01 226.068 2779.98C225.561 2779.96 222.658 2781.21 219.616 2782.76C216.575 2784.31 212.631 2786.93 210.861 2788.6C209.091 2790.27 205.783 2793.06 203.525 2794.79C201.267 2796.53 198.364 2798.52 197.073 2799.22C195.783 2799.93 192.447 2801.68 189.664 2803.13C186.88 2804.57 184.281 2805.76 183.903 2805.77C183.525 2805.77 181.867 2806.34 180.217 2807.04C178.567 2807.73 174.835 2808.97 171.922 2809.8C169.01 2810.63 166.411 2811.73 166.162 2812.23C165.913 2812.74 164.356 2813.15 162.706 2813.14C161.056 2813.13 157.019 2813.97 153.72 2815C149.766 2816.24 145.223 2816.87 140.356 2816.87C136.274 2816.86 129.693 2817.64 125.61 2818.6C121.555 2819.57 114.919 2820.65 110.864 2821C106.809 2821.36 101.003 2822.22 97.9615 2822.92C94.8648 2823.63 87.5655 2824.18 81.3721 2824.17C73.6028 2824.15 67.0224 2823.51 59.253 2821.99C53.1703 2820.8 46.636 2819.15 44.7374 2818.34C42.8388 2817.52 39.309 2816.84 36.9035 2816.85C34.3322 2816.85 31.0051 2816.1 28.8393 2815C26.8117 2813.98 24.6367 2813.15 24.0007 2813.15C23.3648 2813.16 21.2912 2811.68 19.3926 2809.88C17.494 2808.09 14.8951 2805.98 13.6324 2805.18C12.3606 2804.4 10.3975 2802.34 9.25468 2800.62C8.11186 2798.9 7.18102 2796.66 7.18102 2795.64C7.18102 2794.63 7.74321 2792.66 8.43444 2791.26C9.12566 2789.87 9.95512 2786.86 10.2685 2784.58C10.5818 2782.31 11.4482 2779.81 12.1947 2779.05C12.9412 2778.3 13.8628 2776.22 14.2315 2774.44C14.6001 2772.66 16.6922 2768 18.8765 2764.07C21.0607 2760.15 22.8671 2756.62 22.8764 2756.24C22.8948 2755.86 24.351 2754.2 26.1021 2752.55C27.8624 2750.9 29.8162 2749.57 30.4521 2749.58C31.0881 2749.6 32.6364 2748.82 33.9083 2747.83C35.1709 2746.84 37.2446 2745.58 38.5164 2745.02C39.779 2744.46 42.2766 2743.12 44.0462 2742.03C45.8157 2740.95 48.9308 2739.13 50.9584 2737.98C52.986 2736.83 57.6494 2734.4 61.3267 2732.58C65.004 2730.77 68.2205 2728.86 68.4693 2728.35C68.7182 2727.85 69.5476 2727.43 70.3126 2727.43C71.0775 2727.43 76.1557 2723.9 81.6025 2719.59C87.0494 2715.27 92.5423 2710.9 93.8141 2709.87C95.0768 2708.84 99.7494 2704.48 104.182 2700.19C108.615 2695.91 112.247 2691.68 112.247 2690.79C112.247 2689.91 113.279 2687.21 114.551 2684.8C116.477 2681.14 116.855 2679.18 116.836 2672.82C116.818 2666.43 116.459 2664.62 114.588 2661.53C113.362 2659.5 109.952 2655.52 107.003 2652.67C102.505 2648.33 101.325 2646.48 99.6112 2641.14C98.496 2637.65 96.9016 2632.09 96.0813 2628.8C95.2519 2625.51 94.0077 2620.53 93.3072 2617.74C92.616 2614.95 90.5516 2607.08 88.7267 2600.23C86.9019 2593.38 84.8467 2586.54 84.1555 2585.02C83.4642 2583.5 81.9989 2580.18 80.8929 2577.64C79.7962 2575.11 78.1464 2569.72 77.234 2565.66C76.3216 2561.61 74.9576 2555.59 74.2111 2552.3C73.4646 2549 72.1743 2544.96 71.354 2543.31C70.0453 2540.69 69.861 2535.87 69.9163 2505.05C69.9808 2474.16 69.7873 2469.11 68.3864 2464.27C67.2989 2460.54 66.6629 2454.37 66.4141 2445.37C66.1376 2435.36 66.4141 2430.5 67.4924 2426.01C68.3864 2422.31 69.2896 2411.74 69.861 2398.36C70.3679 2386.44 71.6213 2368.82 72.6535 2359.18C73.6858 2349.55 75.1327 2338.15 75.87 2333.84C76.5981 2329.52 77.4552 2321.85 77.7686 2316.78C78.0819 2311.71 78.9206 2305.29 79.6395 2302.5C80.3584 2299.7 81.197 2291.83 81.492 2284.98C81.9159 2275.37 81.6578 2270.02 80.3584 2261.48C79.2708 2254.35 78.6902 2245.5 78.7086 2236.59C78.7363 2228.98 79.2247 2208.87 79.8054 2191.88C80.386 2174.89 81.4827 2155.2 82.2385 2148.1C82.9942 2141 84.2568 2126.7 85.0494 2116.3C85.842 2105.9 87.077 2094.29 87.7959 2090.49C88.5148 2086.68 89.3627 2080.87 89.6944 2077.58C90.017 2074.29 91.3165 2064.54 92.5699 2055.92C93.8326 2047.3 95.6297 2034.23 96.5698 2026.89C97.5006 2019.54 99.1319 2008.96 100.192 2003.38C101.242 1997.8 102.505 1992.2 102.984 1990.94C103.473 1989.66 104.127 1986.56 104.45 1984.02C104.763 1981.49 105.777 1976.1 106.708 1972.04C107.629 1967.98 108.809 1962.18 109.325 1959.14C109.85 1956.09 111.067 1950.7 112.035 1947.15C113.002 1943.6 114.486 1939.35 115.325 1937.7C116.164 1936.05 116.864 1933.36 116.882 1931.71C116.901 1930.06 117.675 1927.47 118.615 1925.95C119.657 1924.26 120.523 1920.52 120.873 1916.27C121.177 1912.47 122.256 1907.08 123.26 1904.29C124.265 1901.5 125.113 1897.56 125.131 1895.53C125.159 1893.51 125.97 1889.57 126.928 1886.78C127.896 1883.98 129.389 1878.8 130.255 1875.25C131.131 1871.71 132.228 1866.1 132.716 1862.81C133.195 1859.52 134.172 1854.75 134.891 1852.21C135.61 1849.68 136.587 1844.9 137.066 1841.61C137.545 1838.32 138.615 1831.27 139.444 1825.94C140.273 1820.61 141.794 1812.32 142.826 1807.5C143.859 1802.69 145.112 1797.71 145.61 1796.44C146.107 1795.17 147.342 1790.62 148.338 1786.3C149.342 1781.99 150.927 1774.12 151.858 1768.79C152.798 1763.46 154.411 1756 155.453 1752.2C156.485 1748.39 158.227 1742.17 159.314 1738.37C160.411 1734.56 161.618 1731.04 162.015 1730.54C162.411 1730.03 163.038 1727.74 163.416 1725.47C163.793 1723.19 164.872 1719.87 165.821 1718.09C166.77 1716.31 167.554 1713.52 167.544 1711.87C167.544 1710.22 168.374 1705.14 169.388 1700.58C170.401 1696.02 171.498 1689.28 171.821 1685.6C172.134 1681.92 173.176 1676.84 174.116 1674.31C175.065 1671.77 175.839 1668.87 175.839 1667.86C175.848 1666.84 176.89 1663.94 178.162 1661.4C179.433 1658.87 180.466 1655.55 180.438 1654.03C180.42 1652.51 181 1649.82 181.728 1648.04C182.456 1646.26 183.479 1640.66 184.005 1635.59C184.521 1630.52 185.406 1620.57 185.968 1613.47C186.53 1606.37 187.396 1595.79 187.903 1589.97C188.41 1584.14 189.488 1577.09 190.29 1574.3C191.645 1569.66 191.645 1568.68 190.299 1562.77C189.488 1559.23 188.419 1552.38 187.912 1547.57C187.277 1541.46 187.313 1537.13 188.014 1533.28C188.576 1530.24 190.032 1525.88 191.249 1523.6C192.474 1521.32 194.815 1517.58 196.456 1515.3C198.106 1513.03 199.765 1510.33 200.161 1509.31C200.557 1508.3 201.635 1503.73 202.557 1499.17C203.488 1494.61 205.976 1485.9 208.078 1479.81C210.188 1473.73 212.935 1466.68 214.188 1464.14C215.432 1461.61 217.939 1456.63 219.755 1453.08C221.57 1449.53 224.022 1444.56 225.192 1442.02C226.372 1439.49 228.188 1434.61 229.238 1431.19C230.28 1427.77 231.146 1424.04 231.146 1422.9C231.155 1421.75 232.187 1417.6 233.45 1413.68C234.713 1409.75 235.754 1405.6 235.754 1404.46C235.763 1403.32 236.593 1399.8 237.597 1396.63C238.611 1393.45 239.431 1389.31 239.441 1387.41C239.441 1385.51 240.003 1382.91 240.676 1381.65C241.358 1380.37 242.454 1376.85 243.109 1373.81C243.763 1370.77 244.823 1367.04 245.459 1365.52C246.104 1363.99 247.081 1358.92 247.634 1354.22C248.196 1349.49 249.92 1342.1 251.496 1337.63C253.062 1333.2 256.177 1325.73 258.408 1321.04C260.647 1316.35 262.472 1312 262.463 1311.36C262.463 1310.73 263.08 1309.28 263.845 1308.14C264.61 1306.99 265.689 1302.84 266.232 1298.92C266.785 1294.99 267.781 1289.9 268.454 1287.63C269.126 1285.35 269.91 1280.99 270.177 1277.95C270.453 1274.91 271.32 1270.86 272.103 1268.96C272.979 1266.85 273.771 1260.92 274.14 1253.75C274.49 1247.1 274.389 1241.33 273.91 1240.44C273.449 1239.58 270.583 1236.97 267.541 1234.64C264.5 1232.31 261.394 1230.42 260.629 1230.43C259.864 1230.45 258.002 1229.64 256.482 1228.63C254.961 1227.63 252.887 1226.81 251.873 1226.83C250.86 1226.83 249.201 1226 248.187 1224.95C247.173 1223.89 245.828 1223.06 245.192 1223.07C244.556 1223.09 242.694 1222.08 241.044 1220.82C239.395 1219.57 237.22 1218.53 236.206 1218.5C235.192 1218.48 232.787 1217.33 230.87 1215.94C228.953 1214.56 227.395 1212.69 227.413 1211.81C227.432 1210.93 228.28 1208.54 229.294 1206.51C230.307 1204.48 231.128 1202.09 231.109 1201.21C231.091 1200.32 231.948 1198.77 233.017 1197.75C234.077 1196.74 235.92 1193.84 237.091 1191.3C238.27 1188.77 240.067 1184.62 241.081 1182.08C242.095 1179.55 244.076 1174.57 245.477 1171.02C246.878 1167.47 248.344 1164.15 248.731 1163.65C249.127 1163.14 250.768 1160.24 252.39 1157.2C254.012 1154.15 257.044 1149.23 262.933 1140.83L262.242 1133.12C261.698 1127.03 260.832 1123.88 254.731 1111.11L254.648 1088.98C254.583 1071.45 254.251 1065.72 253.044 1061.33C252.205 1058.29 251.265 1053.1 250.952 1049.81C250.629 1046.51 249.772 1038.84 249.035 1032.76C247.855 1023 247.864 1019.73 249.099 1005.1C249.874 995.977 251.099 986.234 251.827 983.441C252.546 980.648 253.744 976.297 254.491 973.763C255.228 971.228 256.555 967.08 257.44 964.545C258.325 962.01 259.569 958.48 260.205 956.71C260.85 954.931 262.214 950.783 263.237 947.492C264.26 944.192 265.587 939.012 266.186 935.97C266.785 932.928 267.652 930.025 268.094 929.518C268.546 929.011 269.55 925.895 270.324 922.604C271.099 919.304 271.744 916.198 271.753 915.691C271.753 915.184 271.283 911.036 270.702 906.473C270.011 901.136 268.841 896.703 267.412 894.029C266.196 891.753 265.2 889.365 265.219 888.729C265.228 888.093 264.822 887.577 264.315 887.577C263.809 887.577 262.979 885.604 262.463 883.199C261.956 880.793 260.933 877.991 260.196 876.977C259.449 875.963 258.832 874.617 258.813 873.981C258.795 873.345 257.717 870.441 256.408 867.529C255.099 864.616 253.542 861.205 252.952 859.952C252.362 858.698 248.97 854.651 245.422 850.955C241.874 847.259 238.547 843.719 238.031 843.092C237.524 842.466 235.745 839.046 234.086 835.497C232.427 831.948 230.252 827.385 229.257 825.358C228.261 823.33 227.45 821.044 227.45 820.288C227.45 819.523 226.418 816.933 225.146 814.527C223.884 812.121 222.842 809.522 222.842 808.766C222.842 808.001 221.801 805.309 220.538 802.774C219.266 800.239 218.252 797.437 218.271 796.552C218.299 795.667 217.653 794.312 216.852 793.556C216.041 792.791 215.193 790.929 214.962 789.408C214.732 787.888 213.912 786.016 213.128 785.26C212.345 784.495 211.709 783.463 211.718 782.956C211.727 782.449 209.829 778.089 207.497 773.277C205.165 768.466 202.539 762.861 201.645 760.834C200.76 758.806 199.571 756.105 199 754.842C198.437 753.57 197.617 751.911 197.184 751.155C196.76 750.39 195.562 747.901 194.53 745.624C193.498 743.348 191.516 738.776 190.124 735.485C188.723 732.185 186.364 727.005 184.88 723.963C183.396 720.921 181.83 717.805 181.397 717.049C180.954 716.284 177.977 710.274 174.761 703.684C171.554 697.093 167.932 690.254 166.715 688.475C165.498 686.705 163.941 684.004 163.25 682.483C162.558 680.962 161.609 679.091 161.139 678.335C160.678 677.57 158.992 674.049 157.388 670.5C155.794 666.951 154.135 663.218 153.702 662.204C153.278 661.19 152.245 657.66 151.407 654.369C150.577 651.069 149.121 644.027 148.172 638.699C147.223 633.371 145.61 625.702 144.596 621.646C143.573 617.59 142.107 611.783 141.343 608.741C140.568 605.7 139.462 599.68 138.891 595.376C138.32 591.062 138.043 583.19 138.283 577.862C138.513 572.534 139.204 560.09 139.803 550.209C140.402 540.328 141.25 529.119 141.684 525.321C142.126 521.514 143.379 512.803 144.485 505.964C146.356 494.34 146.485 490.589 146.393 448.814C146.338 424.221 146.716 391.037 147.232 375.072C147.748 359.098 148.799 337.326 149.573 326.679C150.356 316.033 151.398 304.833 151.895 301.792C152.614 297.422 153.573 295.339 156.485 291.883C158.512 289.477 160.171 287.301 160.171 287.043C160.171 286.785 161.775 284.407 163.747 281.743C165.71 279.079 168.42 275.862 169.756 274.599C171.102 273.327 172.18 271.88 172.143 271.373C172.116 270.866 172.945 269.622 173.996 268.608C175.046 267.594 175.885 266.248 175.867 265.612C175.848 264.976 176.567 263.722 177.452 262.819C178.337 261.916 180.208 259.427 181.599 257.289C182.991 255.15 184.125 253.085 184.106 252.707C184.097 252.329 186.41 250.357 189.258 248.329C192.097 246.301 195.636 243.711 197.11 242.568C198.594 241.425 200.318 240.485 200.953 240.475C201.589 240.466 203.147 239.646 204.41 238.65C205.681 237.655 207.442 236.834 208.327 236.825C209.211 236.816 210.99 236.291 212.271 235.655C213.552 235.019 214.584 234.189 214.575 233.811C214.557 233.433 216.723 232.862 219.386 232.548C222.05 232.235 225.266 231.46 226.529 230.815C227.801 230.179 230.289 229.35 232.058 228.981C233.828 228.621 236.74 227.681 238.51 226.907C240.279 226.133 243.394 224.768 245.422 223.865C247.45 222.962 250.15 221.929 251.413 221.561C252.685 221.192 254.546 220.316 255.56 219.625C256.574 218.924 257.919 218.362 258.555 218.362C259.191 218.371 261.68 217.496 264.085 216.436C266.491 215.366 270.334 213.541 272.61 212.38C275.135 211.099 277.412 209.061 278.416 207.181C279.78 204.628 279.983 202.71 279.559 196.249C279.274 191.935 278.822 185.298 278.094 174.587L282.029 170.283C284.204 167.914 286.905 164.697 288.047 163.139C289.19 161.572 290.121 159.986 290.13 159.608C290.14 159.23 292.02 156.843 294.314 154.308C296.619 151.773 298.48 149.386 298.453 149.008C298.434 148.63 299.245 148.105 300.259 147.856C301.273 147.598 302.102 146.98 302.102 146.473C302.102 145.966 305.31 143.164 309.236 140.251C313.153 137.338 316.784 134.638 317.3 134.251C317.807 133.854 320.102 132.149 322.378 130.444C324.655 128.748 328.083 126.683 329.982 125.853C331.88 125.024 333.438 123.936 333.438 123.429C333.438 122.922 334.58 122.258 335.972 121.954C337.364 121.65 339.585 120.516 340.912 119.419C342.239 118.332 344.101 116.912 345.059 116.276C346.018 115.64 349.538 113.151 352.884 110.745C356.239 108.34 362.248 103.344 366.248 99.638C371.538 94.7434 375.298 92.144 379.98 90.153C383.528 88.6413 387.049 87.0558 387.814 86.6318C388.579 86.1986 396.661 85.7101 405.785 85.5441C422.209 85.2307 422.402 85.2492 425.462 87.5075C427.158 88.7611 430.771 91.8583 433.48 94.3931C436.199 96.928 440.199 99.9053 442.383 101.002C444.558 102.099 447.996 103.721 450.024 104.606C452.89 105.851 454.936 106.072 459.24 105.565C462.281 105.206 466.014 104.699 467.535 104.44C469.083 104.164 472.539 101.933 475.368 99.3707C478.161 96.845 482.714 92.9552 485.506 90.7153C488.299 88.4846 492.649 85.5626 495.183 84.2352C497.718 82.8986 501.386 80.7048 503.34 79.3498C505.294 77.9856 508.372 74.5935 510.188 71.8097C512.012 69.0168 513.727 66.528 514.012 66.2791C514.307 66.021 515.063 64.9886 515.708 63.9747C516.353 62.9607 517.45 60.8868 518.141 59.3658C518.832 57.8449 520.086 55.9737 520.925 55.2179C521.763 54.4528 522.436 53.5218 522.408 53.1439C522.39 52.766 523.57 50.692 525.035 48.535C526.5 46.3781 530.122 42.1195 533.099 39.0684C536.067 36.0174 540.574 31.851 543.108 29.8139C545.643 27.7767 548.859 25.6014 550.251 24.993C551.642 24.3754 553.698 23.8777 554.813 23.8777C556.002 23.8777 558.527 22.1632 564.942 15.637L576.149 15.296C582.305 15.1116 590.876 15.0379 603.014 15.3052V15.3052ZM604.397 133.965C601.097 136.573 595.088 140.731 591.033 143.192C586.978 145.662 582.72 148.547 581.559 149.616C580.406 150.676 579.476 152.059 579.485 152.695C579.503 153.331 578.6 156.023 577.494 158.687C576.379 161.351 572.96 166.586 569.891 170.319C566.822 174.062 562.232 178.496 559.698 180.173C557.163 181.851 551.983 184.653 548.177 186.404C544.38 188.146 539.606 190.008 537.578 190.543C535.496 191.087 531.883 193.308 529.284 195.622L524.676 199.733C523.689 218.556 523.063 221.985 521.054 227.128C519.662 230.677 517.948 235.443 517.247 237.729C516.547 240.005 515.091 244.365 514.022 247.407C512.952 250.449 511.552 253.555 510.916 254.32C510.271 255.085 509.533 256.321 509.275 257.086C509.008 257.851 507.349 260.745 505.57 263.538C503.792 266.331 500.52 270.479 498.289 272.756C496.059 275.033 491.967 278.167 489.184 279.715C486.4 281.264 480.594 283.43 476.29 284.536C470.521 286.011 465.129 286.61 455.83 286.794C448.89 286.933 442.743 287.458 442.162 287.965C441.379 288.656 441.526 292.758 442.734 304.096C443.618 312.457 444.522 321.794 444.734 324.836C444.955 328.016 444.319 335.068 443.24 341.428C441.913 349.244 440.531 354.111 438.54 358.02C436.983 361.061 435.729 364.38 435.757 365.394C435.775 366.408 436.301 367.956 436.918 368.823C437.536 369.698 439.913 371.026 442.19 371.782C444.466 372.528 448.208 373.81 450.484 374.621C452.761 375.432 456.503 376.934 458.779 377.958C461.056 378.981 463.544 380.17 464.309 380.612C465.074 381.055 469.636 383.35 474.447 385.719C479.258 388.088 485.175 390.807 487.58 391.766C490.446 392.909 496.326 393.84 504.63 394.466C512.741 395.084 518.565 395.987 520.823 397.001C522.971 397.96 525.496 400.255 527.275 402.855C528.887 405.205 531.247 407.961 532.509 408.984C533.781 409.998 537.717 411.934 541.265 413.289C545.339 414.838 550.435 415.935 555.089 416.257C560.591 416.653 563.983 416.368 568.453 415.16C571.752 414.266 575.9 413.335 577.669 413.095C579.439 412.856 583.383 413.363 586.425 414.229C589.466 415.096 594.646 416.7 597.945 417.787C602.95 419.456 606.046 419.778 616.838 419.76C628.073 419.741 630.571 419.446 636.193 417.502C639.741 416.266 644.386 414.202 646.506 412.911C649.123 411.326 651.123 409.067 652.708 405.952C653.989 403.417 655.058 400.615 655.068 399.73C655.077 398.845 655.86 396.356 656.8 394.199C657.75 392.042 659.233 388.208 660.1 385.673C660.966 383.138 662.293 378.575 663.049 375.533C663.795 372.491 664.855 368.131 665.399 365.855C666.229 362.343 666.063 360.637 664.33 354.793C663.206 350.987 661.74 347.263 661.067 346.498C660.385 345.732 659.538 343.87 659.178 342.35C658.809 340.829 657.74 338.026 656.8 336.128C655.86 334.229 655.077 331.943 655.068 331.058C655.049 330.173 654.257 327.786 653.298 325.758C652.34 323.73 650.856 319.167 649.999 315.618C649.151 312.069 648.091 307.507 647.658 305.479C647.225 303.451 646.856 298.261 646.837 293.957C646.828 289.652 646.377 283.845 645.851 281.052C645.326 278.259 644.285 270.691 643.538 264.229C642.792 257.768 641.769 251.647 641.262 250.633C640.755 249.619 640.064 245.988 639.732 242.568C639.253 237.572 639.538 234.982 641.17 229.433C642.294 225.626 644.017 220.031 645.003 216.989C646.063 213.707 646.801 208.831 646.81 205.006C646.819 200.572 646.1 196.313 644.506 191.41C643.225 187.483 641.354 182.607 640.34 180.579C639.142 178.191 638.488 175.02 638.478 171.591C638.478 168.679 638.165 165.83 637.787 165.259C637.418 164.697 636.285 163.987 635.271 163.692C634.257 163.388 632.718 162.401 631.843 161.489C630.976 160.586 630.211 158.797 630.147 157.534C630.082 156.262 630.184 153.036 630.359 150.354C630.608 146.63 630.147 144.261 628.368 140.325C627.096 137.495 625.52 134.711 624.866 134.14C624.202 133.568 623.686 132.591 623.714 131.955C623.732 131.319 622.718 129.559 621.447 128.038C620.184 126.517 618.626 125.272 617.991 125.272C617.355 125.282 615.382 126.167 613.613 127.254C611.843 128.342 607.696 131.365 604.397 133.965V133.965ZM709.324 32.3487C710.144 32.5054 710.928 33.3627 711.057 34.2476C711.229 35.323 710.697 35.8607 709.462 35.8607C708.448 35.8607 707.416 35.4459 707.158 34.9389C706.9 34.4319 706.955 33.5839 707.269 33.0401C707.582 32.5054 708.504 32.2012 709.324 32.3487ZM676.744 45.2627C678.394 45.1337 678.339 45.3088 676.284 46.8666C675.021 47.8253 672.109 48.8484 669.832 49.1434C667.547 49.4384 665.27 49.2632 664.763 48.7562C664.149 48.1479 664.149 47.5549 664.763 46.9772C665.27 46.4979 667.758 45.9541 670.293 45.7605C672.827 45.5669 675.731 45.3457 676.744 45.2627V45.2627ZM926.063 105.454C926.607 105.961 927.335 108.128 927.695 110.275C928.054 112.423 928.146 114.193 927.888 114.211C927.63 114.23 926.902 113.713 926.257 113.077C925.621 112.432 925.096 110.248 925.096 108.22C925.096 105.657 925.391 104.818 926.063 105.454Z" fill="var(--fill-0, #010001)"/>
<path id="Vector_4" fill-rule="evenodd" clip-rule="evenodd" d="M631.032 100.384C631.584 100.384 632.46 101.214 632.967 102.228C633.621 103.527 633.548 104.523 632.737 105.601C632.101 106.44 631.105 109.03 630.506 111.362C629.898 113.787 629.695 117.501 630.045 120.073C630.386 122.534 630.976 124.719 631.354 124.912C631.732 125.115 632.294 123.926 632.589 122.276C633.004 119.99 633.326 119.603 633.962 120.663C634.503 121.573 634.779 121.649 634.792 120.894C634.801 120.257 634.082 119.354 633.197 118.875C631.686 118.064 631.704 117.916 633.428 116.635C635.17 115.344 635.308 115.455 635.907 118.654C636.257 120.516 636.552 124.535 636.561 127.576C636.57 131.429 637.013 133.531 638.036 134.49C638.847 135.255 639.695 137.117 639.925 138.638C640.156 140.159 640.856 141.864 641.492 142.435C642.128 142.998 643.75 145.698 645.096 148.427C646.441 151.155 647.833 155.248 648.201 157.534C648.561 159.82 649.427 162.825 650.128 164.217C650.828 165.609 651.667 169.342 651.989 172.513C652.312 175.684 653.224 179.518 654.008 181.039C654.791 182.56 655.74 185.666 656.118 187.952C656.505 190.238 657.289 194.386 657.869 197.17C658.45 199.954 658.754 204.314 658.542 206.849C658.33 209.384 657.63 214.573 656.975 218.371C656.33 222.178 654.966 227.976 653.943 231.276C652.137 237.129 652.137 237.47 653.704 246.024C654.579 250.836 655.639 258.726 656.054 263.538C656.468 268.349 657.215 274.368 657.703 276.903C658.275 279.862 658.275 283.66 657.713 287.504C657.114 291.513 657.15 295.246 657.796 298.795C658.33 301.708 659.261 306.686 659.851 309.857C660.441 313.027 661.445 316.447 662.072 317.461C662.708 318.475 663.841 321.379 664.597 323.914C665.353 326.448 667.27 331.638 668.864 335.436C670.45 339.243 672.837 345.465 674.164 349.262C676.394 355.669 676.532 356.95 676.025 366.776C675.731 372.611 674.781 379.653 673.915 382.446C673.058 385.239 670.892 390.419 669.113 393.968C667.325 397.517 665.141 402.495 664.256 405.029C663.362 407.564 661.98 411.196 661.169 413.095C660.358 414.994 659.307 416.552 658.837 416.552C658.367 416.552 657.427 417.068 656.736 417.704C656.054 418.34 654.164 419.787 652.524 420.93C650.893 422.073 646.552 424.101 642.874 425.437C636.497 427.77 635.354 427.88 617.76 427.899C603.134 427.926 598.47 427.622 595.18 426.451C592.894 425.631 588.13 424.691 584.581 424.35C580.969 423.999 575.089 424.184 571.218 424.765C566.306 425.502 561.568 425.53 554.859 424.866C549.661 424.35 544.269 423.354 542.878 422.654C541.486 421.953 538.887 421.077 537.118 420.709C535.339 420.331 532.021 419.197 529.744 418.174C527.459 417.151 523.523 414.671 520.989 412.662C518.455 410.652 514.925 408.412 513.155 407.684C511.376 406.965 508.473 406.375 506.704 406.394C504.925 406.403 500.16 405.37 496.105 404.098C492.05 402.817 487.801 401.776 486.658 401.785C485.516 401.794 483.442 400.955 482.05 399.932C480.659 398.9 478.788 398.07 477.903 398.088C477.018 398.098 476.133 397.803 475.949 397.425C475.765 397.047 469.958 393.931 463.046 390.512C456.134 387.092 449.756 384.29 448.872 384.299C447.987 384.299 445.6 383.469 443.572 382.446C441.545 381.423 439.056 380.602 438.042 380.63C437.029 380.649 435.056 379.819 433.665 378.787C432.273 377.763 430.715 376.915 430.209 376.915C429.702 376.915 427.619 375.358 425.573 373.459C422.209 370.325 421.914 369.698 422.467 366.776C422.799 365.006 423.379 363.135 423.757 362.628C424.135 362.121 424.946 360.047 425.573 358.019C426.199 355.991 428.126 351.327 432.973 340.966V324.835C432.973 313.442 432.568 307.147 431.591 303.404C430.826 300.491 429.923 294.371 429.582 289.808C428.974 281.623 429.01 281.466 431.665 278.055C434.236 274.746 434.596 274.599 439.886 274.58C443.388 274.571 446.604 275.161 448.641 276.193C451.074 277.419 453.802 277.788 459.701 277.678C464.171 277.585 469.313 276.885 471.682 276.046C473.958 275.226 477.073 274.553 478.594 274.553C480.115 274.544 482.806 273.659 484.585 272.589C486.354 271.511 489.58 268.93 491.737 266.856C493.902 264.773 495.663 262.763 495.653 262.385C495.653 262.007 496.787 259.933 498.179 257.776C499.57 255.62 501.165 253.444 501.718 252.937C502.28 252.43 503.275 250.559 503.948 248.789C504.621 247.019 505.708 244.945 506.372 244.18C507.036 243.415 507.589 242.07 507.598 241.185C507.616 240.3 508.446 238.014 509.45 236.115C510.455 234.216 511.736 230.584 512.298 228.049C512.869 225.515 513.671 218.251 514.086 211.918C514.501 205.577 515.081 198.322 515.386 195.787C515.828 192.091 516.482 190.773 518.694 189.105C520.206 187.962 525.496 185.537 530.436 183.721C535.376 181.906 541.081 179.564 543.108 178.513C545.136 177.472 550.168 174.292 554.297 171.453C558.426 168.614 562.628 165.258 563.642 163.986C564.656 162.714 566.776 159.294 568.352 156.382C569.928 153.469 571.209 150.565 571.19 149.929C571.172 149.293 572.01 147.947 573.061 146.934C574.112 145.92 574.95 144.675 574.932 144.168C574.914 143.661 576.36 142.103 578.13 140.712C579.909 139.32 581.669 138.186 582.047 138.204C582.425 138.223 583.568 137.384 584.581 136.333C585.595 135.282 587.153 134.444 588.038 134.462C588.922 134.48 590.065 133.66 590.572 132.646C591.079 131.632 592.01 130.803 592.646 130.812C593.282 130.821 595.023 129.881 596.517 128.738C598.01 127.595 600.913 124.82 602.968 122.58C605.023 120.331 607.954 117.114 609.493 115.437C611.023 113.75 613.097 112.358 614.101 112.339C615.097 112.321 617.364 111.436 619.142 110.367C620.912 109.298 624.092 106.615 626.193 104.403C628.294 102.191 630.469 100.384 631.032 100.384V100.384ZM604.396 133.964C601.097 136.573 595.088 140.73 591.033 143.191C586.978 145.661 582.72 148.547 581.558 149.616C580.406 150.676 579.476 152.059 579.485 152.695C579.503 153.331 578.6 156.022 577.494 158.686C576.379 161.35 572.96 166.586 569.891 170.319C566.822 174.061 562.232 178.495 559.697 180.173C557.163 181.85 551.974 184.652 548.177 186.404C544.371 188.146 539.606 190.008 537.578 190.543C535.495 191.086 531.883 193.308 529.284 195.621L524.676 199.733C523.689 218.555 523.063 221.984 521.054 227.128C519.662 230.676 517.948 235.442 517.247 237.728C516.547 240.014 515.091 244.365 514.022 247.407C512.952 250.448 511.552 253.555 510.916 254.32C510.27 255.085 509.533 256.32 509.275 257.085C509.008 257.85 507.349 260.745 505.57 263.538C503.791 266.331 500.52 270.479 498.289 272.755C496.059 275.032 491.967 278.166 489.184 279.715C486.4 281.263 480.594 283.429 476.29 284.536C470.521 286.01 465.129 286.609 455.83 286.794C448.89 286.932 442.743 287.458 442.162 287.964C441.379 288.656 441.526 292.758 442.734 304.095C443.618 312.465 444.521 321.793 444.733 324.835C444.955 328.015 444.319 335.067 443.24 341.427C441.913 349.244 440.531 354.111 438.54 358.019C436.983 361.061 435.729 364.379 435.757 365.393C435.775 366.407 436.301 367.956 436.918 368.822C437.536 369.698 439.913 371.025 442.19 371.781C444.466 372.528 448.208 373.809 450.484 374.62C452.761 375.431 456.503 376.934 458.779 377.957C461.055 378.98 463.544 380.169 464.309 380.612C465.065 381.054 469.636 383.349 474.447 385.718C479.258 388.087 485.175 390.806 487.58 391.765C490.446 392.908 496.326 393.839 504.63 394.466C512.74 395.084 518.565 395.987 520.823 397.001C522.971 397.959 525.496 400.255 527.275 402.854C528.887 405.205 531.238 407.961 532.509 408.984C533.772 409.998 537.717 411.933 541.265 413.288C545.338 414.837 550.435 415.934 555.089 416.257C560.591 416.653 563.983 416.367 568.453 415.16C571.743 414.266 575.89 413.335 577.669 413.095C579.439 412.855 583.383 413.362 586.425 414.229C589.466 415.095 594.646 416.699 597.945 417.787C602.949 419.455 606.046 419.778 616.838 419.759C628.073 419.741 630.571 419.446 636.193 417.501C639.741 416.266 644.386 414.201 646.506 412.911C649.123 411.325 651.123 409.067 652.708 405.951C653.989 403.416 655.058 400.614 655.068 399.729C655.077 398.844 655.86 396.356 656.8 394.199C657.75 392.042 659.233 388.207 660.1 385.672C660.966 383.137 662.293 378.575 663.049 375.533C663.795 372.491 664.855 368.131 665.399 365.854C666.229 362.342 666.063 360.637 664.33 354.793C663.206 350.995 661.74 347.262 661.067 346.497C660.385 345.732 659.537 343.87 659.178 342.349C658.809 340.828 657.74 338.026 656.8 336.127C655.86 334.228 655.077 331.942 655.068 331.057C655.049 330.172 654.257 327.785 653.298 325.757C652.34 323.729 650.856 319.166 649.999 315.618C649.151 312.069 648.091 307.506 647.658 305.478C647.225 303.45 646.856 298.261 646.837 293.956C646.828 289.651 646.377 283.844 645.851 281.051C645.326 278.258 644.285 270.691 643.538 264.229C642.791 257.767 641.768 251.647 641.262 250.633C640.755 249.619 640.063 245.987 639.732 242.567C639.252 237.571 639.538 234.981 641.169 229.432C642.294 225.634 644.017 220.03 645.003 216.988C646.063 213.707 646.801 208.83 646.81 205.005C646.819 200.571 646.1 196.313 644.506 191.409C643.225 187.482 641.354 182.606 640.34 180.578C639.142 178.191 638.487 175.02 638.478 171.591C638.478 168.678 638.165 165.83 637.787 165.258C637.418 164.696 636.285 163.986 635.271 163.691C634.257 163.387 632.718 162.401 631.843 161.488C630.976 160.585 630.211 158.806 630.147 157.534C630.082 156.271 630.184 153.036 630.359 150.353C630.608 146.629 630.147 144.26 628.368 140.324C627.096 137.495 625.52 134.711 624.866 134.139C624.202 133.568 623.686 132.591 623.714 131.955C623.732 131.319 622.709 129.558 621.447 128.037C620.175 126.516 618.626 125.272 617.99 125.272C617.355 125.281 615.382 126.166 613.613 127.254C611.834 128.341 607.687 131.365 604.396 133.964ZM639.787 106.016C641.483 106.099 641.409 106.237 639.234 107.168C637.63 107.841 636.515 109.205 636.1 110.984C635.474 113.667 635.446 113.685 635.096 111.445C634.884 110.109 635.391 108.459 636.294 107.528C637.151 106.643 638.718 105.961 639.787 106.016Z" fill="var(--fill-0, black)" fill-opacity="0.99"/>
</g>
</svg>
