<svg preserveAspectRatio="none" width="100%" height="100%" overflow="visible" style="display: block;" viewBox="0 0 23 44" fill="none" xmlns="http://www.w3.org/2000/svg">
<g id="Red Pin">
<path id="Ellipse 4" d="M11.5 15.5C14.5863 15.5 17.3593 16.3714 19.3467 17.7539C21.3356 19.1377 22.5 21.0004 22.5 23C22.5 24.9996 21.3356 26.8623 19.3467 28.2461C17.3593 29.6286 14.5863 30.5 11.5 30.5C8.4137 30.5 5.64072 29.6286 3.65332 28.2461C1.66442 26.8623 0.5 24.9996 0.5 23C0.5 21.0004 1.66442 19.1377 3.65332 17.7539C5.64072 16.3714 8.4137 15.5 11.5 15.5Z" fill="var(--fill-0, #FF7262)" stroke="var(--stroke-0, #F24E1E)"/>
<ellipse id="Ellipse 3" cx="8" cy="23" rx="7" ry="6" fill="var(--fill-0, #F3A38C)"/>
<g id="Union">
<mask id="path-3-inside-1_539_951" fill="white">
<path d="M17 23.2139H16.9434C16.5622 24.7889 14.2709 26 11.5 26C8.7291 26 6.43776 24.7889 6.05664 23.2139H6V13H17V23.2139Z"/>
</mask>
<path d="M17 23.2139H16.9434C16.5622 24.7889 14.2709 26 11.5 26C8.7291 26 6.43776 24.7889 6.05664 23.2139H6V13H17V23.2139Z" fill="var(--fill-0, #FF7262)"/>
<path d="M17 23.2139V24.2139H18V23.2139H17ZM16.9434 23.2139V22.2139H16.1565L15.9714 22.9787L16.9434 23.2139ZM6.05664 23.2139L7.02859 22.9787L6.84353 22.2139H6.05664V23.2139ZM6 23.2139H5V24.2139H6V23.2139ZM6 13V12H5V13H6ZM17 13H18V12H17V13ZM17 23.2139V22.2139H16.9434V23.2139V24.2139H17V23.2139ZM16.9434 23.2139L15.9714 22.9787C15.8752 23.3762 15.4869 23.8812 14.6587 24.3092C13.8526 24.7258 12.7483 25 11.5 25V26V27C13.0226 27 14.4494 26.6687 15.577 26.086C16.6824 25.5147 17.6304 24.6266 17.9153 23.449L16.9434 23.2139ZM11.5 26V25C10.2517 25 9.14739 24.7258 8.34126 24.3092C7.51308 23.8812 7.12479 23.3762 7.02859 22.9787L6.05664 23.2139L5.08469 23.449C5.36962 24.6266 6.31755 25.5147 7.42305 26.086C8.55059 26.6687 9.97737 27 11.5 27V26ZM6.05664 23.2139V22.2139H6V23.2139V24.2139H6.05664V23.2139ZM6 23.2139H7V13H6H5V23.2139H6ZM6 13V14H17V13V12H6V13ZM17 13H16V23.2139H17H18V13H17Z" fill="var(--stroke-0, #F24E1E)" mask="url(#path-3-inside-1_539_951)"/>
</g>
<rect id="Rectangle 4" x="7" y="14" width="2" height="7" fill="var(--fill-0, #F3A38C)"/>
<path id="Ellipse 1" d="M11.5 0.5C16.5872 0.5 20.5 3.73771 20.5 7.5C20.5 11.2623 16.5872 14.5 11.5 14.5C6.41282 14.5 2.5 11.2623 2.5 7.5C2.5 3.73771 6.41282 0.5 11.5 0.5Z" fill="var(--fill-0, #FF7262)" stroke="var(--stroke-0, #F24E1E)"/>
<ellipse id="Ellipse 2" cx="8" cy="6.5" rx="4" ry="3.5" fill="var(--fill-0, #F3A38C)"/>
<rect id="Rectangle 5" x="10" y="31" width="2" height="13" fill="var(--fill-0, #DDDADA)"/>
</g>
</svg>
